<svg width="12" height="12" viewBox="0 0 12 12" fill="none" xmlns="http://www.w3.org/2000/svg">
<circle cx="6" cy="6" r="6" fill="white"/>
<g clip-path="url(#clip0)">
<path d="M4.32973 6.62566L4.12088 7.40534L3.35753 7.42148C3.1294 6.99836 3 6.51424 3 5.99979C3 5.50232 3.12098 5.03319 3.33544 4.62012H3.3356L4.0152 4.74471L4.3129 5.42023C4.25059 5.60188 4.21663 5.79688 4.21663 5.99979C4.21665 6.22001 4.25654 6.431 4.32973 6.62566Z" fill="#FBBB00"/>
<path d="M8.94804 5.43945C8.98249 5.62093 9.00045 5.80835 9.00045 5.99989C9.00045 6.21467 8.97787 6.42418 8.93485 6.62627C8.78881 7.31396 8.40722 7.91445 7.87859 8.3394L7.87843 8.33923L7.02245 8.29556L6.9013 7.53929C7.25206 7.33358 7.52619 7.01165 7.67059 6.62627H6.06641V5.43945H7.69399H8.94804Z" fill="#518EF8"/>
<path d="M7.87786 8.33943L7.87802 8.3396C7.36391 8.75284 6.71082 9.00009 5.99989 9.00009C4.85742 9.00009 3.86413 8.36152 3.35742 7.4218L4.32962 6.62598C4.58297 7.30213 5.23522 7.78345 5.99989 7.78345C6.32857 7.78345 6.63649 7.6946 6.90071 7.53949L7.87786 8.33943Z" fill="#28B446"/>
<path d="M7.91539 3.69066L6.94352 4.48631C6.67006 4.31538 6.34681 4.21664 6.0005 4.21664C5.21852 4.21664 4.55407 4.72004 4.31341 5.42044L3.3361 4.62033H3.33594C3.83523 3.65769 4.84105 3 6.0005 3C6.72841 3 7.39583 3.25929 7.91539 3.69066Z" fill="#F14336"/>
</g>
<defs>
<clipPath id="clip0">
<rect width="6" height="6" fill="white" transform="translate(3 3)"/>
</clipPath>
</defs>
</svg>
