<svg width="56" height="56" viewBox="0 0 56 56" fill="none" xmlns="http://www.w3.org/2000/svg">
<rect width="56" height="56" rx="12" fill="#A8EAE2"/>
<path d="M38.2812 16.4848L14.9903 23.0541C14.7943 23.1093 14.6199 23.2231 14.4904 23.3801C14.3608 23.5372 14.2822 23.73 14.2652 23.9329C14.2482 24.1358 14.2935 24.339 14.3951 24.5154C14.4966 24.6919 14.6496 24.8331 14.8336 24.9203L25.535 29.9893C25.7437 30.0882 25.9118 30.2562 26.0106 30.465L31.0797 41.1663C31.1669 41.3503 31.3081 41.5033 31.4845 41.6049C31.661 41.7065 31.8642 41.7518 32.0671 41.7347C32.2699 41.7177 32.4628 41.6392 32.6198 41.5096C32.7769 41.38 32.8906 41.2056 32.9459 41.0097L39.5151 17.7187C39.5634 17.5476 39.5652 17.3668 39.5203 17.1948C39.4754 17.0228 39.3855 16.8659 39.2598 16.7402C39.1341 16.6145 38.9772 16.5245 38.8052 16.4797C38.6332 16.4348 38.4523 16.4366 38.2812 16.4848Z" stroke="#04121F" stroke-width="2" stroke-linecap="round" stroke-linejoin="round"/>
<path d="M25.8574 30.1422L31.5143 24.4854" stroke="#04121F" stroke-width="2" stroke-linecap="round" stroke-linejoin="round"/>
</svg>
