<svg width="48" height="48" viewBox="0 0 48 48" fill="none" xmlns="http://www.w3.org/2000/svg">
<path d="M18.1105 33.1836C17.7331 33.0578 17.3212 33.0871 16.9653 33.265C16.6095 33.4429 16.3389 33.7549 16.213 34.1323C14.9844 37.8184 10.9828 38.9599 8.68738 39.313C9.04041 37.0164 10.1821 33.0156 13.868 31.787C14.055 31.7248 14.2279 31.6264 14.3768 31.4973C14.5257 31.3683 14.6478 31.2111 14.736 31.0349C14.8241 30.8587 14.8767 30.6668 14.8907 30.4702C14.9047 30.2736 14.8798 30.0762 14.8175 29.8893C14.7552 29.7023 14.6566 29.5295 14.5275 29.3806C14.3983 29.2318 14.2411 29.1098 14.0648 29.0218C13.8885 28.9337 13.6966 28.8812 13.5 28.8674C13.3034 28.8535 13.106 28.8785 12.9191 28.9409C9.85156 29.9635 7.59808 32.4005 6.40204 35.9885C5.86992 37.5978 5.57598 39.2763 5.52954 40.9706C5.52956 41.3684 5.6876 41.7499 5.9689 42.0312C6.2502 42.3125 6.63172 42.4706 7.02954 42.4706C8.7239 42.4242 10.4024 42.1302 12.0117 41.5981C15.5996 40.4022 18.0366 38.1486 19.0592 35.081C19.185 34.7036 19.1557 34.2917 18.9778 33.9359C18.7999 33.58 18.4879 33.3094 18.1105 33.1836Z" fill="#2CAE76"/>
<path d="M42.6774 7.84141C42.5851 7.20618 42.2901 6.61776 41.8362 6.16389C41.3823 5.71001 40.7938 5.41499 40.1586 5.3228C38.0424 5.00703 32.5421 4.85158 27.1819 10.2115L25.4999 11.8935H14.0148C13.6206 11.8925 13.2302 11.9696 12.8661 12.1204C12.5019 12.2712 12.1713 12.4928 11.8933 12.7722L5.82923 18.8364C5.44531 19.2203 5.17279 19.7013 5.04074 20.228C4.9087 20.7547 4.92207 21.3073 5.07944 21.827C5.23681 22.3467 5.53227 22.8139 5.93432 23.1789C6.33637 23.5438 6.82993 23.7928 7.36237 23.8993L14.7752 25.3819L22.6183 33.225L24.1008 40.6378C24.2071 41.1704 24.4561 41.6641 24.821 42.0663C25.186 42.4684 25.6533 42.764 26.1731 42.9213C26.6929 43.0787 27.2456 43.092 27.7724 42.9598C28.2991 42.8276 28.7801 42.5549 29.164 42.1708L35.2281 36.1066C35.5075 35.8287 35.729 35.4981 35.8798 35.134C36.0306 34.7699 36.1077 34.3795 36.1066 33.9854V22.5001L37.7886 20.8181C43.1489 15.4579 42.9932 9.95756 42.6774 7.84141ZM14.0148 14.8935H22.5L15.0217 22.3717L7.9507 20.9576L14.0148 14.8935ZM33.1066 33.9854L27.0426 40.0495L25.6284 32.9785L33.1066 25.5002L33.1066 33.9854Z" fill="#2CAE76"/>
</svg>
