<svg width="171" height="17" viewBox="0 0 171 17" fill="none" xmlns="http://www.w3.org/2000/svg">
<path d="M85.6243 15.9501H79.7834V0.230828H85.6243V15.9501ZM80.3538 15.3759H85.0539V0.805026H80.3538V15.3759ZM93.7514 15.9501H88.028V0.230828H99.9859C101.699 0.0911793 103.405 0.575312 104.793 1.59512C105.391 2.14556 105.854 2.82757 106.147 3.58793C106.44 4.34829 106.554 5.16644 106.481 5.97855C106.566 7.38186 106.122 8.76592 105.238 9.85439C104.192 11.0625 102.451 11.6849 100.065 11.7067C99.4634 11.7228 94.9584 11.7067 93.7549 11.7067L93.7514 15.9501ZM88.595 15.3759H93.181V11.1268H93.4674C93.5256 11.1268 99.3745 11.1452 100.051 11.1268C102.274 11.1073 103.873 10.5526 104.807 9.46967C105.594 8.48487 105.985 7.23851 105.902 5.9774C105.972 5.24974 105.875 4.5156 105.618 3.8319C105.361 3.1482 104.95 2.53333 104.419 2.03496C103.132 1.10487 101.557 0.66828 99.978 0.803878H88.5984L88.595 15.3759ZM98.7744 8.17543H93.1422V3.8965H98.812C99.214 3.8406 99.6234 3.88782 100.002 4.03378C100.381 4.17973 100.717 4.41969 100.98 4.73139C101.217 5.12982 101.33 5.59152 101.301 6.05549C101.323 6.48626 101.23 6.91503 101.033 7.29806C100.763 7.62636 100.413 7.87909 100.017 8.03194C99.6217 8.18479 99.1937 8.23262 98.7744 8.17083V8.17543ZM93.7126 7.60123H98.7744C99.7099 7.60123 100.289 7.40486 100.546 7.00062C100.687 6.7068 100.751 6.38136 100.732 6.05549C100.757 5.71334 100.683 5.37121 100.52 5.07017L100.513 5.05983C100.241 4.65789 99.7019 4.4707 98.812 4.4707H93.7126V7.60123ZM116.89 16.182C111.768 16.182 108.711 14.9016 107.546 12.2683C107.355 11.7597 107.226 11.23 107.16 10.6904L107.11 10.3597H113.204L113.244 10.6008C113.291 10.8457 113.394 11.0762 113.546 11.2738C113.786 11.5666 114.589 12.0582 117.254 12.0582C120.458 12.0582 120.458 11.492 120.458 11.1877C120.458 10.6743 120.087 10.4986 117.475 10.2184L116.978 10.1713C115.995 10.0783 114.751 9.96004 114.183 9.91066C109.392 9.47427 107.253 7.97561 107.253 5.05294C107.253 1.98328 110.893 0 116.528 0C121.124 0 124.086 1.2196 125.328 3.62778C125.623 4.18794 125.821 4.79454 125.913 5.42158L125.953 5.74428H119.852L119.827 5.48474C119.803 5.28191 119.717 5.09163 119.58 4.9404C119.352 4.63263 118.631 4.12389 116.393 4.12389C113.645 4.12389 113.266 4.47759 113.266 4.85886C113.266 5.3676 114.134 5.5479 116.917 5.84763C118.077 5.94295 119.942 6.13588 120.581 6.21397C124.598 6.65266 126.39 8.11457 126.39 10.9557C126.391 13.3386 124.743 16.182 116.89 16.182ZM107.777 10.9339C107.834 11.3126 107.932 11.6838 108.07 12.0409C109.131 14.4399 112.017 15.6078 116.89 15.6078C120.965 15.6078 125.824 14.804 125.824 10.9557C125.824 8.43727 124.238 7.19011 120.52 6.78472C119.882 6.70663 118.028 6.51485 116.87 6.41839C113.904 6.09454 112.698 5.92228 112.698 4.85886C112.698 3.7587 113.997 3.54969 116.395 3.54969C118.29 3.54969 119.514 3.89421 120.033 4.58899C120.175 4.76016 120.282 4.95756 120.348 5.17008H125.292C125.193 4.72593 125.036 4.29694 124.825 3.89421C123.684 1.69044 120.897 0.574198 116.53 0.574198C111.242 0.574198 107.826 2.33239 107.826 5.05294C107.826 7.64831 109.743 8.92993 114.236 9.33876C114.806 9.38814 116.049 9.50642 117.034 9.60059L117.534 9.64768C119.96 9.90492 121.03 10.0657 121.03 11.1877C121.03 12.3958 119.647 12.6324 117.257 12.6324C115.046 12.6324 113.649 12.2982 113.11 11.6401C112.943 11.4303 112.818 11.1907 112.74 10.9339H107.777ZM137.228 16.1625C131.273 16.1625 127.987 13.7383 127.987 9.33531V0.230828H133.75V9.33531C133.75 10.8454 135.093 11.7113 137.433 11.7113C139.669 11.7113 141.057 10.8076 141.057 9.35483V0.230828H146.761V9.81764C146.767 13.8497 143.289 16.1625 137.224 16.1625H137.228ZM128.557 0.805026V9.33531C128.557 14.7764 133.985 15.5883 137.228 15.5883C140.579 15.5883 146.2 14.8384 146.2 9.81764V0.805026H141.637V9.35483C141.637 11.1348 139.99 12.2855 137.442 12.2855C134.779 12.2855 133.189 11.1831 133.189 9.33531V0.805026H128.557ZM170.933 15.9501H165.493V8.85298L162.409 15.9501H157.664L154.611 8.86677V15.9501H149.152V0.230828H156.333L160.063 8.89777L163.974 0.230828H170.94L170.933 15.9501ZM166.064 15.3759H170.362V0.805026H164.337L160.045 10.3126L155.954 0.805026H149.718V15.3759H154.036V6.10372L158.029 15.3793H162.022L166.057 6.1175L166.064 15.3759ZM6.17961 0.517927H0.984375V15.663H15.3403V11.631H6.17961V0.517927ZM25.8266 0.173409C19.1951 0.173409 15.7076 3.33724 15.7076 7.9825C15.7076 13.2307 19.3685 15.8927 25.8266 15.8927C32.9361 15.8927 35.9262 12.8058 35.9262 7.9825C35.9262 3.08459 32.5528 0.171109 25.8266 0.171109V0.173409ZM25.8072 4.10896C26.2587 4.10682 26.7098 4.13329 27.1579 4.1882L21.3501 10.0347C21.0752 9.40891 20.9412 8.72968 20.9576 8.04566C20.9576 5.66963 22.1464 4.10666 25.8072 4.10666V4.10896ZM25.8266 12.0191C25.3916 12.021 24.957 11.9965 24.5249 11.9456L30.3431 6.08879C30.6077 6.70422 30.7343 7.37079 30.7138 8.04107C30.7138 10.3528 29.6186 12.0168 25.8266 12.0168V12.0191ZM46.2197 9.952H51.5666C51.488 10.3255 51.3239 10.6755 51.0875 10.9741C49.979 11.8832 48.5642 12.3255 47.1392 12.2086C46.4219 12.2858 45.6965 12.207 45.0121 11.9773C44.3277 11.7477 43.7004 11.3726 43.1726 10.8776C42.632 10.0793 42.3751 9.12069 42.4436 8.15706C42.3562 7.14732 42.6354 6.13992 43.2296 5.32167C43.9768 4.47185 45.242 4.10552 47.1015 4.10552C48.2847 4.0069 49.4663 4.31277 50.4555 4.9737C50.7673 5.22299 51.0003 5.55814 51.1263 5.93835H56.0854C56.0493 5.31187 55.8997 4.69731 55.6439 4.12504C54.4563 1.69388 51.6956 0.246905 47.0011 0.246905C42.9182 0.246905 40.178 1.50095 38.6641 3.39236C37.6643 4.75822 37.1511 6.42348 37.2073 8.11916C37.1426 9.85319 37.6426 11.561 38.631 12.9826C40.1266 14.9349 42.7904 15.8949 45.9915 15.8949C48.1197 16.0444 50.2334 15.4443 51.9705 14.1976L52.1051 15.663H56.2246V6.6917H46.2197V9.952ZM67.9167 0.169961C61.2863 0.169961 57.7977 3.33379 57.7977 7.97905C57.7977 13.2272 61.4574 15.8892 67.9167 15.8892C75.0274 15.8892 78.0174 12.8023 78.0174 7.97905C78.0174 3.08459 74.644 0.171109 67.9167 0.171109V0.169961ZM67.8984 4.10552C68.338 4.10421 68.7773 4.12951 69.2138 4.18131L63.4288 10.0083C63.1625 9.38945 63.0329 8.71983 63.0489 8.04566C63.0443 5.66963 64.2376 4.10666 67.8984 4.10666V4.10552ZM67.9167 12.0157C67.4702 12.0176 67.0241 11.9915 66.5808 11.9376L72.4183 6.06009C72.6929 6.6837 72.8243 7.36159 72.8028 8.04336C72.8051 10.3528 71.7144 12.0168 67.9167 12.0168V12.0157Z" fill="#394149"/>
</svg>
