<svg width="56" height="32" viewBox="0 0 56 32" fill="none" xmlns="http://www.w3.org/2000/svg">
<path d="M34.8599 19.8649C33.4522 19.096 31.8379 18.6595 30.1218 18.6595H26.0431C24.2789 18.6595 22.6229 19.1211 21.189 19.9294C18.1735 21.6269 16.137 24.859 16.137 28.5657V31.6217H40.0279V28.5657C40.0279 24.8108 37.9388 21.5449 34.8599 19.8649Z" fill="#2CAE76"/>
<path d="M46.1233 15.9449H42.7326C40.7529 15.9449 38.9078 16.5301 37.3601 17.5386C38.1039 18.0264 38.8028 18.5962 39.447 19.2404C41.9375 21.7309 43.3091 25.0428 43.3091 28.5658V30.003H55.9999V25.8216C55.9999 20.3758 51.5691 15.9449 46.1233 15.9449Z" fill="#2CAE76"/>
<path d="M13.2673 15.9449H9.87663C4.43081 15.9449 0 20.3758 0 25.8216V30.003H12.856V28.5658C12.856 25.0428 14.2287 21.7309 16.7192 19.2404C17.3393 18.6203 18.0098 18.069 18.7229 17.5932C17.1589 16.552 15.2831 15.9449 13.2673 15.9449Z" fill="#2CAE76"/>
<path d="M44.4228 1.09058C44.4054 1.09058 44.3874 1.09069 44.3699 1.0909C40.6995 1.1212 37.7393 4.29365 37.7713 8.1626C37.8031 12.0132 40.7862 15.1246 44.4329 15.1246C44.4504 15.1246 44.4683 15.1245 44.4858 15.1243C46.2856 15.1094 47.9651 14.3512 49.215 12.9891C50.4359 11.6587 51.0998 9.90561 51.0846 8.05256C51.0528 4.20199 48.0696 1.09058 44.4228 1.09058Z" fill="#2CAE76"/>
<path d="M11.5666 1.09058C11.5492 1.09058 11.5312 1.09069 11.5137 1.0909C7.84326 1.1212 4.88311 4.29365 4.91505 8.1626C4.94677 12.0132 7.93 15.1246 11.5767 15.1246C11.5942 15.1246 11.6121 15.1245 11.6296 15.1243C13.4293 15.1094 15.1089 14.3512 16.3588 12.9891C17.5798 11.6587 18.2437 9.90561 18.2284 8.05256C18.1966 4.20199 15.2134 1.09058 11.5666 1.09058Z" fill="#2CAE76"/>
<path d="M28.084 0C23.8522 0 20.4102 3.63674 20.4102 8.10803C20.4102 11.339 22.2083 14.1346 24.8038 15.4362C25.7991 15.9361 26.9115 16.215 28.084 16.215C29.2565 16.215 30.3688 15.9361 31.3641 15.4362C33.9596 14.1346 35.7578 11.339 35.7578 8.10803C35.7578 3.63674 32.3157 0 28.084 0Z" fill="#2CAE76"/>
</svg>
