<svg width="56" height="57" viewBox="0 0 56 57" fill="none" xmlns="http://www.w3.org/2000/svg">
<rect y="0.769775" width="56" height="56" rx="8" fill="white"/>
<path d="M31.9195 31.3514C31.1152 30.912 30.1926 30.6626 29.212 30.6626H26.8814C25.8732 30.6626 24.927 30.9263 24.1076 31.3882C22.3845 32.3582 21.2207 34.2051 21.2207 36.3233V38.0695H34.8727V36.3233C34.8727 34.1776 33.6789 32.3114 31.9195 31.3514Z" fill="#2CAE76"/>
<path d="M38.3562 29.1113H36.4187C35.2874 29.1113 34.233 29.4457 33.3486 30.022C33.7736 30.3007 34.173 30.6263 34.5411 30.9945C35.9643 32.4176 36.748 34.3101 36.748 36.3233V37.1445H44V34.7551C44 31.6432 41.4681 29.1113 38.3562 29.1113Z" fill="#2CAE76"/>
<path d="M19.5813 29.1113H17.6438C14.5319 29.1113 12 31.6432 12 34.7551V37.1445H19.3463V36.3233C19.3463 34.3101 20.1307 32.4176 21.5538 30.9945C21.9082 30.6401 22.2913 30.3251 22.6988 30.0532C21.8051 29.4582 20.7332 29.1113 19.5813 29.1113Z" fill="#2CAE76"/>
<path d="M37.385 20.6233C37.3751 20.6233 37.3648 20.6234 37.3548 20.6235C35.2574 20.6408 33.5659 22.4536 33.5841 24.6644C33.6023 26.8648 35.307 28.6427 37.3908 28.6427C37.4008 28.6427 37.411 28.6427 37.421 28.6425C38.4495 28.634 39.4092 28.2008 40.1234 27.4225C40.8211 26.6622 41.2004 25.6605 41.1917 24.6016C41.1736 22.4012 39.4689 20.6233 37.385 20.6233Z" fill="#2CAE76"/>
<path d="M18.6096 20.6233C18.5997 20.6233 18.5894 20.6234 18.5794 20.6235C16.482 20.6408 14.7905 22.4536 14.8087 24.6644C14.8269 26.8648 16.5316 28.6427 18.6154 28.6427C18.6254 28.6427 18.6356 28.6427 18.6456 28.6425C19.674 28.634 20.6338 28.2008 21.348 27.4225C22.0457 26.6622 22.4251 25.6605 22.4164 24.6016C22.3982 22.4012 20.6935 20.6233 18.6096 20.6233Z" fill="#2CAE76"/>
<path d="M28.0481 20C25.63 20 23.6631 22.0781 23.6631 24.6332C23.6631 26.4794 24.6906 28.0769 26.1737 28.8207C26.7425 29.1063 27.3781 29.2657 28.0481 29.2657C28.7181 29.2657 29.3538 29.1063 29.9225 28.8207C31.4056 28.0769 32.4332 26.4794 32.4332 24.6332C32.4332 22.0781 30.4663 20 28.0481 20Z" fill="#2CAE76"/>
</svg>
