<svg width="186" height="40" viewBox="0 0 186 40" fill="none" xmlns="http://www.w3.org/2000/svg">
<path d="M56.064 34.384C54.784 34.384 53.6533 34.0853 52.672 33.488C51.6907 32.8907 50.9227 32.0693 50.368 31.024C49.8133 29.9787 49.536 28.7947 49.536 27.472V16.752H53.376V26.992C53.376 28.1653 53.7067 29.104 54.368 29.808C55.0507 30.4907 55.9467 30.832 57.056 30.832C58.144 30.832 59.0187 30.4907 59.68 29.808C60.3627 29.104 60.704 28.1653 60.704 26.992V16.752H64.544V34H60.896V31.984C60.4267 32.752 59.7653 33.3493 58.912 33.776C58.08 34.1813 57.1307 34.384 56.064 34.384ZM68.2623 34V16.752H71.8783V18.8C72.3689 18.0107 73.0409 17.4133 73.8943 17.008C74.7476 16.5813 75.7076 16.368 76.7743 16.368C78.0543 16.368 79.1743 16.6453 80.1343 17.2C81.1156 17.7547 81.8836 18.512 82.4383 19.472C82.9929 20.432 83.2703 21.5413 83.2703 22.8V34H79.4303V23.76C79.4303 22.5867 79.0889 21.6587 78.4063 20.976C77.7449 20.272 76.8703 19.92 75.7823 19.92C74.6729 19.92 73.7769 20.272 73.0943 20.976C72.4329 21.68 72.1023 22.608 72.1023 23.76V34H68.2623ZM86.5405 14.48V10.16H90.3805V14.48H86.5405ZM86.5405 34V16.752H90.3805V34H86.5405ZM101.854 34.384C100.168 34.384 98.6538 33.9893 97.3098 33.2C95.9658 32.4107 94.9098 31.3333 94.1418 29.968C93.3738 28.6027 92.9898 27.0667 92.9898 25.36C92.9898 23.632 93.3738 22.096 94.1418 20.752C94.9098 19.408 95.9658 18.3413 97.3098 17.552C98.6538 16.7627 100.168 16.368 101.854 16.368C103.07 16.368 104.19 16.5813 105.214 17.008C106.259 17.4347 107.155 18.0213 107.902 18.768C108.67 19.5147 109.224 20.368 109.566 21.328L106.238 22.992C105.896 22.0533 105.342 21.3067 104.574 20.752C103.806 20.1973 102.899 19.92 101.854 19.92C100.915 19.92 100.072 20.1547 99.3258 20.624C98.6004 21.0933 98.0244 21.744 97.5978 22.576C97.1924 23.3867 96.9898 24.3253 96.9898 25.392C96.9898 26.4373 97.1924 27.376 97.5978 28.208C98.0244 29.0187 98.6004 29.6587 99.3258 30.128C100.072 30.5973 100.915 30.832 101.854 30.832C102.899 30.832 103.806 30.5547 104.574 30C105.342 29.4453 105.896 28.6987 106.238 27.76L109.566 29.456C109.224 30.3947 108.68 31.2373 107.934 31.984C107.187 32.7307 106.291 33.3173 105.246 33.744C104.2 34.1707 103.07 34.384 101.854 34.384ZM120.108 34.384C118.423 34.384 116.887 34 115.5 33.232C114.135 32.4427 113.047 31.376 112.236 30.032C111.447 28.6667 111.052 27.1093 111.052 25.36C111.052 23.632 111.447 22.096 112.236 20.752C113.047 19.3867 114.135 18.32 115.5 17.552C116.866 16.7627 118.402 16.368 120.108 16.368C121.794 16.368 123.319 16.7627 124.684 17.552C126.05 18.32 127.138 19.3867 127.948 20.752C128.759 22.096 129.164 23.632 129.164 25.36C129.164 27.1093 128.759 28.6667 127.948 30.032C127.138 31.376 126.039 32.4427 124.652 33.232C123.287 34 121.772 34.384 120.108 34.384ZM120.108 30.832C121.068 30.832 121.932 30.5973 122.7 30.128C123.468 29.6587 124.066 29.0187 124.492 28.208C124.94 27.376 125.164 26.4373 125.164 25.392C125.164 24.3467 124.94 23.408 124.492 22.576C124.066 21.744 123.468 21.0933 122.7 20.624C121.932 20.1547 121.068 19.92 120.108 19.92C119.127 19.92 118.252 20.1547 117.484 20.624C116.716 21.0933 116.119 21.744 115.692 22.576C115.266 23.408 115.052 24.3467 115.052 25.392C115.052 26.4373 115.266 27.376 115.692 28.208C116.119 29.0187 116.716 29.6587 117.484 30.128C118.252 30.5973 119.127 30.832 120.108 30.832ZM131.887 34V16.752H135.503V19.152C135.951 18.2133 136.57 17.552 137.359 17.168C138.17 16.7627 139.109 16.56 140.175 16.56H141.775V20.016H139.695C138.522 20.016 137.562 20.3893 136.815 21.136C136.09 21.8613 135.727 22.896 135.727 24.24V34H131.887ZM144.169 34V16.752H147.785V18.8C148.275 18.0107 148.947 17.4133 149.801 17.008C150.654 16.5813 151.614 16.368 152.681 16.368C153.961 16.368 155.081 16.6453 156.041 17.2C157.022 17.7547 157.79 18.512 158.345 19.472C158.899 20.432 159.177 21.5413 159.177 22.8V34H155.337V23.76C155.337 22.5867 154.995 21.6587 154.313 20.976C153.651 20.272 152.777 19.92 151.689 19.92C150.579 19.92 149.683 20.272 149.001 20.976C148.339 21.68 148.009 22.608 148.009 23.76V34H144.169ZM169.103 34.384C167.311 34.384 165.721 33.9573 164.335 33.104C162.969 32.2507 162.02 31.0667 161.487 29.552L164.463 28.112C164.911 29.136 165.54 29.9147 166.351 30.448C167.161 30.9813 168.079 31.248 169.103 31.248C169.956 31.248 170.639 31.0667 171.151 30.704C171.684 30.3413 171.951 29.8613 171.951 29.264C171.951 28.688 171.705 28.2507 171.215 27.952C170.724 27.6533 170.212 27.4293 169.679 27.28L166.735 26.512C165.22 26.1067 164.089 25.4773 163.343 24.624C162.596 23.7707 162.223 22.7573 162.223 21.584C162.223 20.0267 162.809 18.768 163.983 17.808C165.156 16.848 166.703 16.368 168.623 16.368C170.308 16.368 171.78 16.7733 173.039 17.584C174.319 18.3733 175.225 19.4507 175.759 20.816L172.751 22.224C172.431 21.392 171.908 20.752 171.183 20.304C170.457 19.8347 169.604 19.6 168.623 19.6C167.812 19.6 167.172 19.7707 166.703 20.112C166.255 20.432 166.031 20.8693 166.031 21.424C166.031 21.9787 166.244 22.4053 166.671 22.704C167.119 22.9813 167.599 23.1947 168.111 23.344L171.183 24.208C172.676 24.6347 173.807 25.2747 174.575 26.128C175.364 26.96 175.759 27.9733 175.759 29.168C175.759 30.192 175.471 31.0987 174.895 31.888C174.34 32.6773 173.561 33.296 172.559 33.744C171.556 34.1707 170.404 34.384 169.103 34.384Z" fill="white"/>
<path d="M179.091 34V29.68H183.059V34H179.091Z" fill="#F7BE7D"/>
<path fill-rule="evenodd" clip-rule="evenodd" d="M7.26569 6.29197L11.1748 8.81366L9.61935 10.208C7.78186 11.8551 7.90275 11.915 4.90666 7.88336C1.4274 3.20141 1.93935 2.85599 7.26569 6.29197ZM15.7746 4.89319C16.8365 5.30368 18.4614 6.66417 18.4614 7.14307C18.4614 7.31188 18.0297 7.45019 17.502 7.45019C16.4462 7.45019 16.1734 8.34888 17.1221 8.70137C18.0554 9.04865 21.5711 8.26522 23.5817 7.26205C26.2558 5.92759 26.6668 6.00902 26.4158 7.82201L26.2097 9.30929H28.6678C31.302 9.30929 31.609 9.59113 30.5582 11.0442C30.0355 11.7674 30.0586 11.847 30.8461 12.0515C31.3166 12.1738 32.0956 12.276 32.5769 12.2786C33.7228 12.2853 34.0755 13.245 33.2554 14.1229C32.6348 14.7873 32.6674 14.8409 33.9761 15.2993C34.8568 15.6079 35.3473 16.0192 35.3473 16.4486C35.3473 16.8163 35.1746 17.1175 34.9635 17.1175C34.1637 17.1175 34.6258 17.7894 35.7311 18.233C36.9449 18.7201 37.1733 19.2897 36.4403 19.9999C36.1064 20.3233 36.2584 20.5431 37.0597 20.8971C38.0582 21.3377 38.1081 21.4719 37.9024 23.1559C37.1594 29.2348 31.6055 34.393 24.3814 35.7137C22.0685 36.1365 21.8351 36.1183 21.3324 35.4754C20.4371 34.3302 20.2471 32.4138 20.7648 29.7549C21.3025 26.9945 21.1432 25.8337 20.0479 24.5231L19.3218 23.6541L17.9426 24.8276C16.5176 26.0397 14.4817 26.7793 12.5594 26.7826C11.8445 26.7841 10.946 27.2299 10.0135 28.046C8.2397 29.5991 6.09289 30.0446 4.15831 29.2615C2.96939 28.78 2.75486 28.4826 2.3826 26.8016C1.6638 23.5545 1.76511 23.2373 4.38703 20.5327C6.97172 17.8664 8.61656 15.4053 9.0295 13.5852C9.18646 12.8948 10.0879 11.7614 11.3958 10.6107L13.5092 8.75156L12.9328 6.92184C12.6162 5.91569 12.4454 4.95342 12.5537 4.78387C12.8158 4.37264 14.5826 4.43287 15.7746 4.89319ZM11.3617 17.1175C11.3617 17.7991 11.5927 18.0787 12.2267 18.166C12.7459 18.2374 13.1846 18.0515 13.3231 17.7013C13.7053 16.7364 13.17 15.9392 12.2267 16.069C11.5927 16.1564 11.3617 16.436 11.3617 17.1175Z" fill="#2CAE76"/>
</svg>
