<svg width="56" height="56" viewBox="0 0 56 56" fill="none" xmlns="http://www.w3.org/2000/svg">
<rect width="56" height="56" rx="12" fill="#F6BBC1"/>
<path d="M38 30H18C17.4477 30 17 30.4477 17 31V37C17 37.5523 17.4477 38 18 38H38C38.5523 38 39 37.5523 39 37V31C39 30.4477 38.5523 30 38 30Z" stroke="#04121F" stroke-width="2" stroke-linecap="round" stroke-linejoin="round"/>
<path d="M38 18H18C17.4477 18 17 18.4477 17 19V25C17 25.5523 17.4477 26 18 26H38C38.5523 26 39 25.5523 39 25V19C39 18.4477 38.5523 18 38 18Z" stroke="#04121F" stroke-width="2" stroke-linecap="round" stroke-linejoin="round"/>
<path d="M34.5 23.5C35.3284 23.5 36 22.8284 36 22C36 21.1716 35.3284 20.5 34.5 20.5C33.6716 20.5 33 21.1716 33 22C33 22.8284 33.6716 23.5 34.5 23.5Z" fill="#04121F"/>
<path d="M34.5 35.5C35.3284 35.5 36 34.8284 36 34C36 33.1716 35.3284 32.5 34.5 32.5C33.6716 32.5 33 33.1716 33 34C33 34.8284 33.6716 35.5 34.5 35.5Z" fill="#04121F"/>
</svg>
