<svg width="48" height="48" viewBox="0 0 48 48" fill="none" xmlns="http://www.w3.org/2000/svg">
<rect width="48" height="48" rx="12" fill="#BBCFF6"/>
<path d="M34.5673 23.4173L32.25 24.576L29.25 18.8308L31.5909 17.6604C31.7667 17.5724 31.9701 17.5571 32.1572 17.6176C32.3443 17.6781 32.5001 17.8097 32.5911 17.984L34.8967 22.3994C34.9428 22.4877 34.9708 22.5842 34.9792 22.6835C34.9876 22.7827 34.9761 22.8827 34.9454 22.9774C34.9148 23.0722 34.8655 23.1599 34.8006 23.2354C34.7357 23.311 34.6564 23.3728 34.5673 23.4173V23.4173Z" stroke="#131313" stroke-width="2" stroke-linecap="round" stroke-linejoin="round"/>
<path d="M15.7494 24.4755L13.4322 23.3169C13.3431 23.2723 13.2638 23.2105 13.1988 23.135C13.1339 23.0594 13.0847 22.9717 13.054 22.877C13.0233 22.7822 13.0119 22.6823 13.0202 22.583C13.0286 22.4838 13.0567 22.3872 13.1028 22.2989L15.4083 17.8836C15.4994 17.7093 15.6552 17.5777 15.8423 17.5171C16.0293 17.4566 16.2327 17.472 16.4086 17.5599L18.7494 18.7303L15.7494 24.4755Z" stroke="#131313" stroke-width="2" stroke-linecap="round" stroke-linejoin="round"/>
<path d="M32.25 24.5761L30.75 26.3309L27.3003 29.7806C27.2087 29.8722 27.095 29.9385 26.9701 29.9731C26.8453 30.0076 26.7137 30.0093 26.588 29.9779L21.1546 28.6195C21.0527 28.594 20.9572 28.5474 20.8745 28.4827L15.75 24.4756" stroke="#131313" stroke-width="2" stroke-linecap="round" stroke-linejoin="round"/>
<path d="M30.7498 26.3308L26.6248 23.3308L25.4248 24.2308C24.9055 24.6203 24.2739 24.8308 23.6248 24.8308C22.9757 24.8308 22.3441 24.6203 21.8248 24.2308L21.3166 23.8497C21.2306 23.7852 21.1595 23.703 21.1081 23.6087C21.0567 23.5143 21.0261 23.41 21.0185 23.3028C21.0109 23.1956 21.0264 23.0881 21.0639 22.9874C21.1015 22.8867 21.1603 22.7953 21.2363 22.7193L24.9051 19.0505C24.9748 18.9808 25.0574 18.9256 25.1484 18.8879C25.2394 18.8502 25.337 18.8308 25.4355 18.8308H29.2498" stroke="#131313" stroke-width="2" stroke-linecap="round" stroke-linejoin="round"/>
<path d="M18.8047 18.7303L23.6159 17.3277C23.7878 17.2776 23.9719 17.2906 24.135 17.3644L27.3758 18.8308" stroke="#131313" stroke-width="2" stroke-linecap="round" stroke-linejoin="round"/>
<path d="M22.5 31.9558L19.6744 31.2494C19.5598 31.2207 19.4535 31.1654 19.3643 31.0878L17.25 29.25" stroke="#131313" stroke-width="2" stroke-linecap="round" stroke-linejoin="round"/>
</svg>
