<svg width="149" height="34" viewBox="0 0 149 34" fill="none" xmlns="http://www.w3.org/2000/svg">
<path d="M35.999 8.13501H39.4214V24.7293H35.999V8.13501Z" fill="#394149"/>
<path d="M41.3379 19.0449C41.338 17.8509 41.6901 16.6839 42.3497 15.6917C43.0094 14.6995 43.9468 13.9268 45.0432 13.4715C46.1396 13.0162 47.3455 12.8988 48.5083 13.1343C49.671 13.3697 50.7381 13.9473 51.5743 14.794C52.4106 15.6406 52.9783 16.7181 53.2055 17.8899C53.4327 19.0617 53.3092 20.275 52.8506 21.376C52.3921 22.4771 51.6191 23.4163 50.6297 24.0746C49.6403 24.733 48.479 25.0808 47.293 25.0739C46.5063 25.0801 45.7264 24.9281 44.9989 24.6269C44.2714 24.3257 43.6109 23.8813 43.0563 23.3197C42.5016 22.7582 42.0639 22.0908 41.7689 21.3567C41.4738 20.6226 41.3273 19.8367 41.3379 19.0449ZM49.9168 19.0449C49.9034 18.5301 49.7394 18.0309 49.4456 17.6094C49.1517 17.188 48.7409 16.8632 48.2646 16.6755C47.7883 16.4878 47.2676 16.4457 46.7677 16.5544C46.2677 16.6631 45.8107 16.9177 45.4537 17.2865C45.0968 17.6553 44.8558 18.1218 44.7608 18.6278C44.6659 19.1337 44.7212 19.6566 44.92 20.131C45.1187 20.6055 45.452 21.0104 45.8781 21.2952C46.3042 21.5799 46.8043 21.7319 47.3158 21.7321C47.664 21.7389 48.0099 21.6734 48.3319 21.5395C48.6538 21.4057 48.9448 21.2065 49.1868 20.9543C49.4288 20.702 49.6165 20.4023 49.7382 20.0738C49.8598 19.7452 49.9129 19.395 49.894 19.0449H49.9168Z" fill="#394149"/>
<path d="M66.7896 13.3602V24.1666C66.7896 27.9793 63.8235 29.5985 60.8232 29.5985C59.7649 29.686 58.7034 29.4743 57.7581 28.9874C56.8129 28.5004 56.0214 27.7576 55.4728 26.8424L58.359 25.1657C58.5929 25.6404 58.965 26.0321 59.4256 26.2885C59.8862 26.545 60.4135 26.6541 60.9373 26.6012C61.2709 26.6426 61.6095 26.6092 61.9289 26.5035C62.2482 26.3978 62.5404 26.2224 62.7846 25.9898C63.0288 25.7572 63.2188 25.4731 63.3413 25.1579C63.4637 24.8428 63.5154 24.5042 63.4927 24.1666V23.1216C63.0944 23.6077 62.5891 23.9936 62.0168 24.2488C61.4445 24.5039 60.821 24.6213 60.1957 24.5915C58.6829 24.5915 57.2321 23.9866 56.1624 22.9097C55.0927 21.8329 54.4917 20.3724 54.4917 18.8495C54.4917 17.3267 55.0927 15.8662 56.1624 14.7893C57.2321 13.7125 58.6829 13.1076 60.1957 13.1076C60.821 13.0778 61.4445 13.1951 62.0168 13.4503C62.5891 13.7055 63.0944 14.0914 63.4927 14.5775V13.4291L66.7896 13.3602ZM63.4927 18.8151C63.5154 18.2657 63.3744 17.7219 63.0877 17.2538C62.801 16.7857 62.3818 16.4147 61.884 16.1883C61.3861 15.962 60.8324 15.8908 60.294 15.9838C59.7556 16.0768 59.2571 16.3299 58.8627 16.7103C58.4683 17.0908 58.196 17.5814 58.0808 18.1189C57.9655 18.6564 58.0127 19.2164 58.2161 19.7267C58.4196 20.2371 58.77 20.6745 59.2224 20.9827C59.6748 21.291 60.2085 21.4559 60.7547 21.4564C61.1112 21.4822 61.4691 21.4325 61.8052 21.3105C62.1414 21.1885 62.4484 20.9968 62.7065 20.7479C62.9645 20.499 63.1678 20.1983 63.3032 19.8654C63.4386 19.5325 63.5032 19.1747 63.4927 18.8151Z" fill="#394149"/>
<path d="M68.7172 19.0448C68.7172 17.8519 69.0687 16.6858 69.7274 15.6941C70.386 14.7023 71.322 13.9296 72.4171 13.4736C73.5121 13.0176 74.717 12.8989 75.8791 13.1324C77.0412 13.366 78.1084 13.9414 78.9455 14.7857C79.7827 15.63 80.3522 16.7054 80.582 17.8757C80.8118 19.0459 80.6916 20.2586 80.2365 21.36C79.7814 22.4615 79.012 23.4023 78.0256 24.0634C77.0391 24.7245 75.8801 25.0762 74.695 25.0739C73.9069 25.0816 73.1252 24.9308 72.3958 24.6304C71.6663 24.33 71.0037 23.886 70.447 23.3245C69.8902 22.7629 69.4504 22.0951 69.1534 21.3602C68.8563 20.6253 68.708 19.8382 68.7172 19.0448ZM77.2961 19.0448C77.2826 18.5296 77.1184 18.0299 76.824 17.6082C76.5296 17.1866 76.1182 16.8617 75.6412 16.6744C75.1643 16.4871 74.643 16.4457 74.1427 16.5553C73.6425 16.6649 73.1855 16.9207 72.829 17.2906C72.4725 17.6605 72.2324 18.1281 72.1388 18.6348C72.0451 19.1415 72.1021 19.6647 72.3026 20.1389C72.503 20.6132 72.838 21.0173 73.2657 21.3007C73.6933 21.5841 74.1945 21.7342 74.7064 21.7321C75.0547 21.7389 75.4006 21.6734 75.7225 21.5395C76.0445 21.4057 76.3355 21.2064 76.5775 20.9542C76.8195 20.702 77.0071 20.4023 77.1288 20.0737C77.2505 19.7452 77.3036 19.3949 77.2847 19.0448H77.2961Z" fill="#394149"/>
<path d="M82.2588 10.317C82.2588 9.91268 82.3779 9.51746 82.601 9.18131C82.8241 8.84515 83.1413 8.58315 83.5123 8.42843C83.8834 8.27371 84.2917 8.23323 84.6856 8.31211C85.0795 8.39098 85.4413 8.58567 85.7253 8.87155C86.0093 9.15742 86.2027 9.52165 86.281 9.91818C86.3594 10.3147 86.3192 10.7257 86.1655 11.0992C86.0118 11.4728 85.7515 11.792 85.4176 12.0166C85.0836 12.2412 84.691 12.3611 84.2894 12.3611C83.7527 12.3551 83.2396 12.1379 82.8601 11.7558C82.4806 11.3737 82.2647 10.8573 82.2588 10.317ZM82.5896 13.3602H86.012V24.7293H82.5896V13.3602Z" fill="#394149"/>
<path d="M100.661 19.0447C100.699 19.8009 100.588 20.5571 100.335 21.2701C100.082 21.983 99.6914 22.6385 99.1856 23.1989C98.6799 23.7592 98.069 24.2133 97.3883 24.5351C96.7075 24.8569 95.9702 25.04 95.2189 25.0738C94.5813 25.1165 93.9424 25.0137 93.3498 24.7731C92.7572 24.5325 92.2262 24.1603 91.7964 23.6843V29.2999H88.374V13.3602H91.7964V14.4282C92.2267 13.9536 92.7581 13.5831 93.3508 13.3444C93.9435 13.1058 94.5821 13.0051 95.2189 13.0501C95.9672 13.084 96.7015 13.266 97.38 13.5856C98.0585 13.9052 98.6677 14.3563 99.173 14.9129C99.6783 15.4696 100.07 16.121 100.325 16.8299C100.58 17.5388 100.694 18.2915 100.661 19.0447ZM97.2381 19.0447C97.2246 18.5114 97.055 17.9939 96.7506 17.5571C96.4462 17.1203 96.0205 16.7837 95.5269 16.5895C95.0332 16.3952 94.4936 16.352 93.9756 16.4651C93.4577 16.5783 92.9844 16.8428 92.6152 17.2256C92.2459 17.6084 91.9971 18.0923 91.9 18.6168C91.8028 19.1413 91.8616 19.683 92.069 20.1741C92.2763 20.6651 92.6231 21.0835 93.0657 21.377C93.5083 21.6705 94.0272 21.826 94.5572 21.8239C94.9202 21.8394 95.2824 21.7775 95.62 21.6422C95.9576 21.5069 96.263 21.3013 96.5161 21.0389C96.7693 20.7765 96.9645 20.4632 97.0889 20.1195C97.2133 19.7758 97.2641 19.4096 97.2381 19.0447Z" fill="#394149"/>
<path d="M111.076 21.3186C111.076 23.937 108.794 25.0509 106.375 25.0509C105.389 25.1403 104.399 24.9298 103.532 24.4467C102.666 23.9635 101.963 23.2299 101.516 22.3407L104.459 20.664C104.576 21.0738 104.828 21.4308 105.175 21.6754C105.522 21.92 105.942 22.0373 106.364 22.0077C107.174 22.0077 107.585 21.755 107.585 21.2956C107.585 20.0439 102.029 20.71 102.029 16.771C102.029 14.2904 104.105 13.0502 106.455 13.0502C107.349 13.0099 108.236 13.2139 109.023 13.6405C109.811 14.0672 110.469 14.7005 110.927 15.4733L107.984 17.0351C107.854 16.7388 107.642 16.4868 107.372 16.3095C107.103 16.1322 106.788 16.0372 106.467 16.036C105.874 16.036 105.52 16.2657 105.52 16.6676C105.52 17.9768 111.076 17.1155 111.076 21.3186Z" fill="#394149"/>
<path d="M123.477 13.3602V24.7294H120.054V23.6613C119.666 24.1341 119.172 24.5082 118.613 24.7536C118.054 24.999 117.446 25.1087 116.837 25.0739C114.556 25.0739 112.605 23.4317 112.605 20.3655V13.3602H116.027V19.8487C116 20.1199 116.032 20.3938 116.121 20.6515C116.209 20.9091 116.352 21.1443 116.54 21.3409C116.728 21.5374 116.956 21.6906 117.208 21.7899C117.46 21.8891 117.731 21.9321 118.001 21.9158C119.233 21.9158 120.1 21.1808 120.1 19.619V13.3602H123.477Z" fill="#394149"/>
<path d="M142.87 17.7471V24.7293H139.448V18.0457C139.448 16.8973 138.912 16.1853 137.828 16.1853C136.744 16.1853 136.06 16.9777 136.06 18.3213V24.7293H132.637V18.0457C132.637 16.8973 132.101 16.1853 131.017 16.1853C129.934 16.1853 129.249 16.9777 129.249 18.3213V24.7293H125.827V13.3602H129.249V14.4052C129.603 13.9435 130.066 13.5779 130.596 13.3413C131.126 13.1048 131.706 13.0047 132.284 13.0501C132.862 13.0198 133.439 13.1414 133.957 13.4031C134.475 13.6649 134.917 14.0577 135.238 14.5431C135.614 14.036 136.112 13.6331 136.684 13.372C137.257 13.1109 137.886 13.0002 138.512 13.0501C141.182 13.0501 142.87 14.9105 142.87 17.7471Z" fill="#394149"/>
<path d="M15.6125 5.14924V0.268555H0.325684V33.8017H15.6125V28.921C12.481 28.921 9.47775 27.6688 7.26344 25.4397C5.04913 23.2107 3.80515 20.1875 3.80515 17.0351C3.80515 13.8828 5.04913 10.8596 7.26344 8.63054C9.47775 6.4015 12.481 5.14924 15.6125 5.14924Z" fill="#394149"/>
<path d="M15.6133 5.14929V28.9211C18.7448 28.9211 21.748 27.6688 23.9623 25.4398C26.1767 23.2108 27.4206 20.1875 27.4206 17.0352C27.4206 13.8829 26.1767 10.8596 23.9623 8.63059C21.748 6.40155 18.7448 5.14929 15.6133 5.14929Z" fill="#394149"/>
<path d="M145.745 13.2913C147.131 13.2913 148.254 12.1602 148.254 10.7649C148.254 9.36954 147.131 8.2384 145.745 8.2384C144.359 8.2384 143.235 9.36954 143.235 10.7649C143.235 12.1602 144.359 13.2913 145.745 13.2913Z" fill="#394149"/>
</svg>
