<svg width="48" height="48" viewBox="0 0 48 48" fill="none" xmlns="http://www.w3.org/2000/svg">
<rect width="48" height="48" rx="12" fill="#CBE5BF"/>
<path d="M24 33C28.9706 33 33 28.9706 33 24C33 19.0294 28.9706 15 24 15C19.0294 15 15 19.0294 15 24C15 28.9706 19.0294 33 24 33Z" stroke="#131313" stroke-width="2" stroke-miterlimit="10"/>
<path d="M32.0776 27.9723L26.9883 24.8422C26.8991 24.7873 26.7994 24.7517 26.6956 24.7377L24.5563 24.4494C24.3957 24.4277 24.2324 24.4587 24.0908 24.5376C23.9492 24.6166 23.8371 24.7393 23.7711 24.8873L22.4868 27.769C22.4271 27.9031 22.408 28.0516 22.4319 28.1964C22.4558 28.3412 22.5216 28.4758 22.6212 28.5835L24.3837 30.4899C24.4636 30.5763 24.522 30.6803 24.5543 30.7935C24.5865 30.9067 24.5917 31.0259 24.5693 31.1414L24.2103 32.9974" stroke="#131313" stroke-width="2" stroke-linecap="round" stroke-linejoin="round"/>
<path d="M18.0892 17.2131L17.2506 19.1959C17.1759 19.3727 17.1717 19.5714 17.2391 19.7512L18.3164 22.6263C18.3605 22.7441 18.4335 22.8488 18.5287 22.931C18.6238 23.0131 18.7382 23.07 18.8611 23.0964L20.8701 23.5283C20.9816 23.5522 21.0862 23.6013 21.1758 23.6717C21.2655 23.7421 21.3379 23.8321 21.3876 23.9347L21.7444 24.6718C21.8058 24.7986 21.9017 24.9056 22.0211 24.9805C22.1405 25.0553 22.2785 25.095 22.4195 25.095H23.6788" stroke="#131313" stroke-width="2" stroke-linecap="round" stroke-linejoin="round"/>
<path d="M26.2925 15.2952L27.1675 16.8625C27.2503 17.0107 27.2803 17.1825 27.2527 17.35C27.2252 17.5174 27.1416 17.6705 27.0158 17.7844L24.4929 20.066C24.45 20.1047 24.4029 20.1384 24.3524 20.1663L23.2047 20.8001C23.0937 20.8614 22.9689 20.8935 22.8421 20.8935H20.841C20.6934 20.8935 20.5491 20.9371 20.4262 21.0187C20.3032 21.1003 20.2071 21.2164 20.1498 21.3524L19.3691 23.2057" stroke="#131313" stroke-width="2" stroke-linecap="round" stroke-linejoin="round"/>
</svg>
