<svg width="48" height="48" viewBox="0 0 48 48" fill="none" xmlns="http://www.w3.org/2000/svg">
<rect width="48" height="48" rx="12" fill="#F6BBC1"/>
<path d="M21 30.75H27" stroke="#131313" stroke-width="2" stroke-linecap="round" stroke-linejoin="round"/>
<path d="M21.75 33.75H26.25" stroke="#131313" stroke-width="2" stroke-linecap="round" stroke-linejoin="round"/>
<path d="M19.4994 27.75C18.2402 26.8054 17.3102 25.4887 16.841 23.9862C16.3718 22.4837 16.3872 20.8716 16.885 19.3784C17.3828 17.8852 18.3379 16.5864 19.6148 15.6661C20.8918 14.7457 22.4259 14.2505 24 14.2505C25.574 14.2505 27.1082 14.7457 28.3852 15.666C29.6621 16.5864 30.6172 17.8851 31.115 19.3784C31.6128 20.8716 31.6282 22.4837 31.159 23.9861C30.6898 25.4886 29.7598 26.8054 28.5007 27.75" stroke="#131313" stroke-width="2" stroke-linecap="round" stroke-linejoin="round"/>
</svg>
