<svg width="145" height="38" viewBox="0 0 145 38" fill="none" xmlns="http://www.w3.org/2000/svg">
<path d="M24.1846 9.14734H26.4662V25.133H33.311V27.4298H24.1846V9.14734ZM40.4183 9.14734C41.772 9.14734 43.0954 9.55146 44.2211 10.3086C45.3467 11.0657 46.224 12.1418 46.7421 13.4009C47.2602 14.6599 47.3957 16.0454 47.1316 17.382C46.8675 18.7186 46.2156 19.9463 45.2583 20.91C44.301 21.8736 43.0814 22.5298 41.7536 22.7957C40.4259 23.0616 39.0496 22.9251 37.7989 22.4036C36.5481 21.8821 35.4791 20.9989 34.727 19.8658C33.9749 18.7327 33.5734 17.4005 33.5734 16.0377C33.5734 15.1329 33.7505 14.2369 34.0944 13.4009C34.4384 12.5649 34.9426 11.8053 35.5782 11.1655C36.2138 10.5257 36.9684 10.0181 37.7989 9.67184C38.6293 9.32556 39.5194 9.14734 40.4183 9.14734ZM40.4183 20.6313C41.3208 20.6313 42.203 20.3619 42.9535 19.8571C43.7039 19.3524 44.2888 18.635 44.6341 17.7956C44.9795 16.9562 45.0699 16.0326 44.8938 15.1416C44.7177 14.2505 44.2831 13.432 43.645 12.7896C43.0068 12.1471 42.1937 11.7096 41.3085 11.5324C40.4233 11.3552 39.5058 11.4461 38.672 11.7938C37.8382 12.1415 37.1255 12.7302 36.6241 13.4857C36.1227 14.2411 35.855 15.1292 35.855 16.0377C35.8611 17.252 36.3445 18.4145 37.1996 19.271C38.0547 20.1275 39.212 20.6083 40.4183 20.6083V20.6313ZM35.855 25.156H44.9815V27.4528H35.855V25.156ZM65.0597 27.4528H62.7781V25.8106C61.3067 26.8474 59.5546 27.4045 57.7585 27.4068C56.227 27.4172 54.7175 27.0393 53.3692 26.3081C52.0208 25.5769 50.8769 24.5159 50.0429 23.2228C49.2089 21.9297 48.7115 20.4461 48.5967 18.9087C48.4819 17.3712 48.7532 15.8295 49.3858 14.4253C50.0184 13.0212 50.9918 11.8 52.2164 10.874C53.441 9.94811 54.8774 9.34732 56.3933 9.127C57.9091 8.90667 59.4557 9.07392 60.8905 9.61332C62.3252 10.1527 63.6021 11.0469 64.6034 12.2136L62.9264 13.718C62.1648 12.8608 61.2023 12.2092 60.1265 11.8225C59.0506 11.4358 57.8958 11.3262 56.7672 11.5039C55.6385 11.6815 54.572 12.1407 53.6648 12.8396C52.7576 13.5384 52.0386 14.4547 51.5733 15.5049C51.108 16.5552 50.9112 17.7059 51.0008 18.8523C51.0905 19.9987 51.4637 21.1043 52.0866 22.0683C52.7094 23.0323 53.562 23.824 54.5666 24.3714C55.5713 24.9187 56.6961 25.2042 57.8384 25.2019C58.7864 25.2039 59.7237 24.9997 60.5861 24.6033C61.4485 24.2069 62.2157 23.6276 62.8351 22.9051H56.6748V20.6083H65.0825L65.0597 27.4528ZM73.4561 9.19328C74.8098 9.19328 76.1332 9.59739 77.2588 10.3545C78.3845 11.1116 79.2618 12.1878 79.7799 13.4468C80.2979 14.7059 80.4335 16.0913 80.1694 17.4279C79.9053 18.7645 79.2534 19.9923 78.2961 20.9559C77.3388 21.9195 76.1192 22.5758 74.7914 22.8416C73.4636 23.1075 72.0874 22.971 70.8366 22.4495C69.5859 21.928 68.5169 21.0449 67.7648 19.9117C67.0126 18.7786 66.6112 17.4464 66.6112 16.0837C66.6052 15.173 66.7785 14.2702 67.1212 13.4274C67.4639 12.5846 67.9692 11.8185 68.6078 11.1735C69.2465 10.5285 70.0058 10.0173 70.8419 9.66956C71.6779 9.32178 72.5742 9.14428 73.4789 9.14734L73.4561 9.19328ZM73.4561 20.6772C74.3586 20.6772 75.2408 20.4078 75.9912 19.9031C76.7417 19.3983 77.3265 18.6809 77.6719 17.8415C78.0173 17.0022 78.1077 16.0786 77.9316 15.1875C77.7555 14.2964 77.3209 13.4779 76.6827 12.8355C76.0446 12.1931 75.2315 11.7556 74.3463 11.5783C73.4611 11.4011 72.5436 11.4921 71.7098 11.8397C70.876 12.1874 70.1633 12.7762 69.6619 13.5316C69.1605 14.287 68.8928 15.1751 68.8928 16.0837C68.9108 17.294 69.4027 18.4482 70.2614 19.2954C71.1202 20.1427 72.2764 20.6145 73.4789 20.6083L73.4561 20.6772ZM68.8928 25.2019H78.0193V27.4987H68.8928V25.2019ZM82.7308 9.14734H85.0124V27.4068H82.7308V9.14734ZM88.1725 9.14734H90.4541C90.5716 9.13479 90.6902 9.13479 90.8077 9.14734C91.7633 9.04298 92.73 9.14238 93.6448 9.43906C94.5597 9.73575 95.4022 10.2231 96.1176 10.8693C96.8329 11.5155 97.4051 12.3061 97.7967 13.1897C98.1884 14.0733 98.3908 15.03 98.3908 15.9975C98.3908 16.9651 98.1884 17.9218 97.7967 18.8054C97.4051 19.6889 96.8329 20.4796 96.1176 21.1258C95.4022 21.772 94.5597 22.2593 93.6448 22.556C92.73 22.8527 91.7633 22.9521 90.8077 22.8477H90.4541V27.4413H88.1725V9.14734ZM90.4541 11.4441V20.5279H90.8077C91.4522 20.6143 92.1075 20.5611 92.7298 20.3718C93.3522 20.1825 93.9272 19.8616 94.4163 19.4304C94.9054 18.9993 95.2973 18.4679 95.5659 17.8719C95.8344 17.2759 95.9733 16.629 95.9733 15.9746C95.9733 15.3201 95.8344 14.6732 95.5659 14.0772C95.2973 13.4812 94.9054 12.9498 94.4163 12.5187C93.9272 12.0875 93.3522 11.7666 92.7298 11.5773C92.1075 11.388 91.4522 11.3348 90.8077 11.4212C90.6834 11.4342 90.561 11.4611 90.4427 11.5016L90.4541 11.4441ZM106.893 10.468L105.205 11.8116C104.913 11.5052 104.541 11.2889 104.132 11.1881C103.723 11.0872 103.294 11.106 102.895 11.2423C102.496 11.3786 102.144 11.6267 101.88 11.9574C101.616 12.2881 101.452 12.6877 101.406 13.1093V13.2931C101.406 14.3036 102.102 14.9812 103.459 15.0731C108.684 15.3946 111.08 17.8637 111.08 21.1251V21.3318C110.945 22.6227 110.445 23.8473 109.638 24.8602C108.832 25.873 107.754 26.6314 106.531 27.0451C105.309 27.4588 103.995 27.5104 102.744 27.1939C101.494 26.8773 100.36 26.2058 99.4779 25.2593L101.223 23.9042C101.63 24.3425 102.126 24.6866 102.677 24.9127C103.229 25.1388 103.823 25.2414 104.418 25.2134C105.516 25.2717 106.595 24.9004 107.428 24.1772C108.262 23.4539 108.785 22.4345 108.89 21.3318V21.1711C108.89 18.1048 105.901 17.5421 103.311 17.2895C100.915 17.0598 99.1927 15.5554 99.1927 13.3849V13.2931C99.2772 12.1631 99.7894 11.1088 100.624 10.3481C101.458 9.58728 102.551 9.17802 103.676 9.20476C104.272 9.18703 104.866 9.29541 105.418 9.52289C105.97 9.75037 106.469 10.0919 106.882 10.5254L106.893 10.468ZM120.012 25.0756C122.853 25.0756 125.1 21.9864 125.1 18.1852V8.99805H127.382V18.1852C127.382 23.2382 124.097 27.315 120.058 27.315C116.02 27.315 112.734 23.2382 112.734 18.1852V8.99805H115.016V18.1852C114.924 22.0438 117.172 25.133 120.001 25.133L120.012 25.0756ZM144.893 27.3724H142.612V16.0033L137.353 22.8936L132.094 16.0033V27.4068H129.812V9.14734L137.341 19.1269L144.871 9.14734L144.893 27.3724Z" fill="#394149"/>
<path d="M13.2328 6.40279C13.2328 4.74591 12.5789 3.15689 11.4151 1.9853C10.2512 0.813709 8.67273 0.155518 7.02679 0.155518C5.38086 0.155518 3.80234 0.813709 2.6385 1.9853C1.47465 3.15689 0.820801 4.74591 0.820801 6.40279V25.2939L5.93162 28.9803V37.9607H8.12197V28.9803L13.2328 25.2939V6.40279ZM11.0424 16.968L8.12197 19.9079V17.1518L11.0424 14.2119V16.968ZM3.05678 14.2119L5.97725 17.1518V19.9079L3.05678 16.968V14.2119ZM11.0424 11.0882L7.02679 15.1306L3.01115 10.9964V8.24022L7.02679 12.2826L11.0424 8.24022V11.0882ZM7.02679 2.36044C7.90995 2.36437 8.76748 2.65963 9.46803 3.20098C10.1686 3.74234 10.6735 4.49994 10.9055 5.35775L7.02679 9.25081L3.14805 5.35775C3.37158 4.4914 3.87289 3.72353 4.5742 3.17328C5.27552 2.62303 6.13764 2.32115 7.02679 2.3145V2.36044ZM3.01115 24.18V20.0457L5.93162 22.9856V26.27L3.01115 24.18ZM8.12197 26.2815V22.9856L11.0424 20.0457V24.1685L8.12197 26.2815Z" fill="#394149"/>
</svg>
