<svg width="182" height="41" viewBox="0 0 182 41" fill="none" xmlns="http://www.w3.org/2000/svg">
<path d="M0.780273 0V40.7141H181.687V0H0.780273ZM179.406 38.4173H87.0002V2.29679H179.406V38.4173Z" fill="#394149"/>
<path d="M10.396 27.178V13.6418H15.0368V23.5732H23.2232V27.178H10.396Z" fill="white"/>
<path d="M41.5198 20.3151C41.5198 24.625 38.848 27.3846 32.4926 27.3846C26.7201 27.3846 23.4482 25.0051 23.4482 20.3151C23.4482 16.159 26.5672 13.3317 32.4926 13.3317C38.5103 13.3317 41.5198 15.9351 41.5198 20.3151ZM36.8607 20.3667C36.8607 18.4145 36.0553 16.8492 32.4755 16.8492C29.2036 16.8492 28.1404 18.2457 28.1404 20.3667C28.1404 22.5223 29.1158 23.9187 32.4903 23.9187C35.8865 23.9187 36.8607 22.4362 36.8607 20.3667Z" fill="white"/>
<path d="M55.8755 27.1778L55.7557 25.8664C54.2033 26.9817 52.3136 27.5185 50.411 27.3845C47.551 27.3845 45.169 26.5221 43.8331 24.7811C42.9521 23.5101 42.5071 21.9844 42.5657 20.4356C42.5156 18.9193 42.9759 17.4305 43.8719 16.2106C45.2238 14.5213 47.6742 13.4005 51.3225 13.4005C55.5195 13.4005 57.986 14.6936 59.0469 16.8664C59.2747 17.378 59.4084 17.9271 59.4416 18.4868H55.0016C54.8898 18.1466 54.6816 17.8469 54.4027 17.6243C53.5183 17.0341 52.4621 16.761 51.4047 16.8491C50.7844 16.7735 50.1552 16.8312 49.5588 17.0184C48.9623 17.2057 48.4121 17.5183 47.9446 17.9355C47.4137 18.667 47.1644 19.5676 47.243 20.47C47.1815 21.331 47.4106 22.1877 47.8932 22.9012C48.3651 23.3436 48.9259 23.6788 49.5376 23.8841C50.1493 24.0894 50.7977 24.1599 51.4389 24.0909C52.7125 24.1952 53.9768 23.7998 54.9674 22.9873C55.1802 22.7195 55.3269 22.4046 55.3952 22.0686H50.6175V19.1597H59.558V27.1778H55.8755Z" fill="white"/>
<path d="M78.9314 20.3151C78.9314 24.625 76.2585 27.3846 69.9042 27.3846C64.1317 27.3846 60.8599 25.0051 60.8599 20.3151C60.8599 16.159 63.9788 13.3317 69.9042 13.3317C75.9174 13.3317 78.9314 15.9351 78.9314 20.3151ZM74.2723 20.3667C74.2723 18.4145 73.4669 16.8492 69.8871 16.8492C66.6152 16.8492 65.552 18.2457 65.552 20.3667C65.552 22.5223 66.5285 23.9187 69.9019 23.9187C73.2969 23.9187 74.2723 22.4362 74.2723 20.3667Z" fill="white"/>
<path d="M94.8169 27.1262V13.5901H98.1252V27.1262H94.8169Z" fill="#394149"/>
<path d="M115.114 21.4703C114.276 22.5739 112.833 23.0781 110.799 23.0907C110.37 23.0907 104.683 23.0735 104.683 23.0735V27.1262H101.445V13.59H110.8C111.55 13.5102 112.308 13.5902 113.025 13.8249C113.742 14.0596 114.402 14.4436 114.962 14.952C115.7 15.9215 116.06 17.1303 115.972 18.349C116.048 19.4574 115.745 20.5586 115.114 21.4703ZM112.46 17.057C112.118 16.5403 111.379 16.2532 110.13 16.2532H104.666V20.3736H110.095C111.431 20.3736 112.135 20.098 112.46 19.5628C112.653 19.1858 112.736 18.7613 112.699 18.3386C112.728 17.8979 112.646 17.4571 112.46 17.057Z" fill="#394149"/>
<path d="M125.513 27.333C119.414 27.333 117.548 25.0362 117.548 22.7635H121.008C121.008 23.8844 122.532 24.7296 125.667 24.7296C128.784 24.7296 129.606 24.1772 129.606 23.2803C129.606 22.28 128.99 21.97 126.095 21.6427C125.524 21.591 123.972 21.4015 123.389 21.3154C119.282 20.8491 117.701 19.625 117.701 17.435C117.701 15.1244 120.014 13.3834 125.033 13.3834C130.48 13.3834 132.57 15.539 132.57 17.7806H129.148C129.148 16.6426 127.863 15.9868 124.831 15.9868C121.713 15.9868 121.046 16.4175 121.046 17.2627C121.046 18.1424 121.73 18.418 125.038 18.8142C125.792 18.9187 127.471 19.1082 127.933 19.1587C131.428 19.5205 133.004 20.7963 133.004 23.0552C132.998 25.7459 130.6 27.333 125.513 27.333Z" fill="#394149"/>
<path d="M142.746 27.3157C138.276 27.3157 135.364 25.5392 135.364 21.8034V13.5901H138.634V21.8494C138.634 23.557 140.023 24.6939 142.883 24.6939C145.469 24.6939 147.011 23.6259 147.011 21.8494V13.5901H150.249V22.11C150.249 25.5058 147.542 27.3157 142.746 27.3157Z" fill="#394149"/>
<path d="M167.977 27.1262V18.0907L163.78 27.1262H160.595L156.518 18.0907V27.1262H153.438V13.5901H157.611L162.235 23.9015L166.963 13.5901H171.07V27.1262H167.977Z" fill="#394149"/>
</svg>
