<svg width="137" height="32" viewBox="0 0 137 32" fill="none" xmlns="http://www.w3.org/2000/svg">
<path d="M40.1982 9.22515H43.6207V23.1552H40.1982V9.22515ZM44.9782 17.8955C44.9782 14.4504 47.0773 12.3947 50.3172 12.3947C53.5571 12.3947 55.6562 14.4504 55.6562 17.8955C55.6562 21.3407 53.6027 23.4078 50.3172 23.4078C47.0317 23.4078 44.9782 21.3981 44.9782 17.8955ZM52.2224 17.8955C52.2224 16.0007 51.4808 14.8867 50.3172 14.8867C49.1536 14.8867 48.4235 16.0351 48.4235 17.8955C48.4235 19.7559 49.1422 20.8814 50.3172 20.8814C51.4922 20.8814 52.2224 19.8248 52.2224 17.907V17.8955ZM56.9453 23.8328H60.2308C60.3872 24.1824 60.6515 24.472 60.9845 24.6582C61.3175 24.8444 61.7014 24.9174 62.0789 24.8663C63.3795 24.8663 64.0639 24.1543 64.0639 23.1207V21.1914H63.9955C63.7228 21.7827 63.2803 22.2782 62.7252 22.6139C62.1701 22.9496 61.5277 23.1102 60.8811 23.0748C58.3827 23.0748 56.7285 21.157 56.7285 17.8611C56.7285 14.5652 58.3029 12.4866 60.9267 12.4866C61.5936 12.4603 62.2526 12.6398 62.8153 13.001C63.3781 13.3622 63.8177 13.888 64.0753 14.5078V12.59H67.4978V23.0404C67.4978 25.5553 65.296 27.1172 62.0447 27.1172C59.0216 27.1172 57.1392 25.7506 56.9453 23.8442V23.8328ZM64.0753 17.8841C64.0753 16.2074 63.311 15.1509 62.1017 15.1509C60.8925 15.1509 60.151 16.1959 60.151 17.8841C60.151 19.5722 60.8811 20.5254 62.1017 20.5254C63.3224 20.5254 64.0753 19.5952 64.0753 17.8955V17.8841ZM68.7869 17.8841C68.7869 14.4389 70.886 12.3832 74.1259 12.3832C77.3658 12.3832 79.4763 14.4389 79.4763 17.8841C79.4763 21.3292 77.4228 23.3964 74.1259 23.3964C70.8289 23.3964 68.7869 21.3981 68.7869 17.8955V17.8841ZM76.031 17.8841C76.031 15.9892 75.2895 14.8753 74.1259 14.8753C72.9622 14.8753 72.2892 16.0351 72.2892 17.907C72.2892 19.7789 73.0079 20.8929 74.1715 20.8929C75.3351 20.8929 76.031 19.8248 76.031 17.907V17.8841ZM80.7768 10.0864C80.7678 9.7386 80.8616 9.39591 81.0464 9.10182C81.2311 8.80772 81.4984 8.57546 81.8145 8.43448C82.1305 8.29351 82.481 8.25016 82.8215 8.30994C83.162 8.36972 83.4772 8.52993 83.7272 8.77026C83.9771 9.0106 84.1506 9.32023 84.2255 9.65992C84.3005 9.9996 84.2735 10.354 84.1481 10.6783C84.0227 11.0025 83.8045 11.282 83.5212 11.4813C83.2378 11.6805 82.902 11.7906 82.5564 11.7976C82.3273 11.8134 82.0975 11.7814 81.8813 11.7035C81.665 11.6257 81.4671 11.5036 81.3 11.3451C81.1329 11.1866 81.0001 10.995 80.9101 10.7823C80.82 10.5697 80.7747 10.3406 80.7768 10.1094V10.0864ZM80.7768 12.6129H84.1992V23.1552H80.7768V12.6129ZM96.6226 17.8841C96.6226 21.3292 95.1053 23.293 92.5043 23.293C91.8373 23.3361 91.1733 23.172 90.602 22.8228C90.0307 22.4737 89.5797 21.9563 89.31 21.3407H89.2416V26.5315H85.8191V12.59H89.2416V14.4733H89.31C89.5672 13.8476 90.0096 13.3168 90.577 12.9531C91.1445 12.5894 91.8094 12.4105 92.4815 12.4407C95.1053 12.4866 96.6682 14.4618 96.6682 17.907L96.6226 17.8841ZM93.2002 17.8841C93.2002 16.2074 92.4358 15.1394 91.238 15.1394C90.0401 15.1394 89.2758 16.2189 89.2644 17.8841C89.253 19.5492 90.0401 20.6172 91.238 20.6172C92.4358 20.6172 93.2002 19.5722 93.2002 17.907V17.8841ZM102.498 12.3718C105.338 12.3718 107.061 13.7269 107.141 15.8973H104.026C104.026 15.1509 103.41 14.68 102.464 14.68C101.517 14.68 101.095 15.0475 101.095 15.5873C101.095 16.127 101.471 16.2993 102.235 16.46L104.426 16.9079C106.513 17.3558 107.403 18.2056 107.403 19.8019C107.403 21.9838 105.43 23.3849 102.521 23.3849C99.6115 23.3849 97.7064 21.9838 97.5581 19.8363H100.855C100.958 20.6172 101.574 21.0766 102.578 21.0766C103.582 21.0766 104.038 20.7436 104.038 20.1923C104.038 19.6411 103.718 19.5263 102.897 19.354L100.923 18.9291C98.8814 18.5042 97.809 17.4132 97.809 15.8055C97.8318 13.7383 99.6685 12.3947 102.498 12.3947V12.3718ZM118.823 23.1322H115.526V21.1685H115.457C115.276 21.8278 114.876 22.4049 114.324 22.8039C113.772 23.2029 113.101 23.3998 112.423 23.3619C111.903 23.3917 111.383 23.3087 110.897 23.1187C110.412 22.9287 109.973 22.636 109.609 22.2604C109.246 21.8848 108.967 21.4351 108.791 20.9416C108.615 20.4481 108.546 19.9224 108.59 19.3999V12.59H112.012V18.6075C112.012 19.8593 112.651 20.5254 113.712 20.5254C113.961 20.5259 114.207 20.4728 114.433 20.3698C114.66 20.2668 114.862 20.1162 115.027 19.928C115.191 19.7399 115.313 19.5186 115.386 19.279C115.458 19.0394 115.478 18.7869 115.446 18.5386V12.59H118.868L118.823 23.1322ZM120.477 12.59H123.785V14.6226H123.854C124.035 13.972 124.426 13.4004 124.965 12.9973C125.504 12.5941 126.16 12.3822 126.831 12.3947C127.514 12.3397 128.192 12.5454 128.731 12.971C129.271 13.3966 129.631 14.0108 129.74 14.6915H129.809C130.016 14.0036 130.444 13.4045 131.027 12.9886C131.609 12.5728 132.312 12.3639 133.026 12.3947C133.491 12.379 133.955 12.462 134.386 12.6384C134.818 12.8147 135.207 13.0805 135.53 13.4184C135.853 13.7563 136.102 14.1588 136.26 14.5998C136.418 15.0407 136.482 15.5102 136.448 15.9777V23.1552H133.026V16.8964C133.026 15.748 132.512 15.2198 131.554 15.2198C131.34 15.218 131.129 15.2623 130.934 15.3498C130.738 15.4373 130.564 15.5659 130.422 15.727C130.281 15.8881 130.175 16.0779 130.113 16.2836C130.05 16.4893 130.032 16.7061 130.06 16.9194V23.1552H126.808V16.8505C126.808 15.794 126.295 15.2198 125.36 15.2198C125.143 15.2198 124.93 15.266 124.733 15.3553C124.536 15.4446 124.36 15.5749 124.216 15.7377C124.073 15.9005 123.965 16.092 123.901 16.2997C123.836 16.5073 123.816 16.7264 123.842 16.9424V23.1552H120.42L120.477 12.59Z" fill="#394149"/>
<path d="M30.6262 9.85679C30.0457 8.52047 29.2773 7.27512 28.3446 6.15896C26.9659 4.45972 25.2453 3.07367 23.2962 2.09203C21.347 1.1104 19.2134 0.555437 17.0358 0.463671C14.8582 0.371905 12.686 0.745414 10.6621 1.55962C8.63827 2.37383 6.80865 3.61027 5.29368 5.18756C3.77871 6.76486 2.61275 8.64724 1.87254 10.7108C1.13232 12.7744 0.834635 14.9724 0.999073 17.1602C1.16351 19.3479 1.78634 21.4758 2.82658 23.4038C3.86681 25.3317 5.30086 27.0161 7.03434 28.346C8.14663 29.2163 9.37568 29.9239 10.6849 30.4475C12.5205 31.2048 14.4851 31.5948 16.4688 31.5959C20.5636 31.5868 24.4878 29.9437 27.3812 27.0268C30.2745 24.1099 31.9009 20.1572 31.9039 16.0352C31.907 13.9089 31.4719 11.8052 30.6262 9.85679ZM16.4574 3.621C18.2388 3.62081 19.9988 4.01276 21.6139 4.76939C21.22 4.9407 20.8059 5.06035 20.3818 5.1254C18.9861 5.32877 17.6932 5.98104 16.696 6.98485C15.6989 7.98865 15.0509 9.29016 14.8489 10.6951C14.7602 11.4831 14.4042 12.2161 13.841 12.7705C13.2778 13.3249 12.5418 13.6668 11.7573 13.7384C10.3616 13.9417 9.0687 14.594 8.07153 15.5978C7.07435 16.6016 6.42639 17.9031 6.22436 19.3081C6.15596 20.0573 5.83842 20.7613 5.32312 21.3063C4.43404 19.4152 4.03464 17.3284 4.16209 15.2401C4.28954 13.1519 4.9397 11.13 6.05207 9.36269C7.16443 7.59537 8.70285 6.14003 10.5241 5.13211C12.3454 4.1242 14.3904 3.59647 16.4688 3.59803L16.4574 3.621ZM7.02293 24.0739C7.15983 23.9476 7.29672 23.8328 7.43362 23.695C8.44854 22.7044 9.10002 21.3969 9.28173 19.9856C9.35541 19.1924 9.70725 18.4514 10.2742 17.8956C10.8198 17.3239 11.5542 16.9726 12.3391 16.9079C13.7348 16.7046 15.0277 16.0523 16.0248 15.0485C17.022 14.0447 17.67 12.7432 17.872 11.3382C17.9214 10.5085 18.2751 9.72684 18.8645 9.14478C19.4236 8.5842 20.1649 8.24571 20.9522 8.19161C22.2344 8.01403 23.4302 7.44024 24.3746 6.54941C25.45 7.44754 26.3611 8.52798 27.0669 9.74195C27.0236 9.80092 26.9738 9.85485 26.9186 9.90273C26.3741 10.4794 25.6407 10.8384 24.8538 10.9133C23.4567 11.1131 22.1618 11.7643 21.164 12.7687C20.1662 13.7732 19.5193 15.0766 19.3208 16.483C19.2404 17.2736 18.891 18.0119 18.3317 18.5728C17.7724 19.1337 17.0377 19.4827 16.2521 19.5607C14.8523 19.7626 13.5546 20.4135 12.5516 21.4169C11.5487 22.4203 10.894 23.7227 10.6849 25.1305C10.6235 25.6917 10.4321 26.2306 10.1259 26.7038C8.95545 26.0042 7.90716 25.1157 7.02293 24.0739ZM16.4574 28.5067C15.2998 28.508 14.1477 28.3456 13.035 28.0244C13.4156 27.3101 13.6631 26.5317 13.7651 25.7276C13.8451 24.9388 14.1929 24.2019 14.7498 23.6412C15.3068 23.0805 16.0389 22.7304 16.8225 22.6499C18.2202 22.4488 19.5157 21.7976 20.5151 20.7936C21.5145 19.7896 22.1642 18.4868 22.3668 17.0802C22.4467 16.2914 22.7945 15.5545 23.3515 14.9938C23.9085 14.4331 24.6405 14.083 25.4242 14.0025C26.476 13.8648 27.4785 13.4706 28.3446 12.8541C28.8255 14.6891 28.8825 16.6107 28.5112 18.4713C28.1398 20.3319 27.35 22.0822 26.2023 23.5879C25.0547 25.0935 23.5797 26.3146 21.8904 27.1573C20.2012 28 18.3427 28.4419 16.4574 28.4493V28.5067Z" fill="#394149"/>
</svg>
