<svg width="56" height="56" viewBox="0 0 56 56" fill="none" xmlns="http://www.w3.org/2000/svg">
<rect width="56" height="56" rx="8" fill="white"/>
<path d="M39.6996 33.6642C40.5346 31.9407 40.9784 30.0539 40.9992 28.1389C41.0201 26.2239 40.6175 24.328 39.8202 22.5867C39.023 20.8454 37.8508 19.3018 36.3875 18.0663C34.9242 16.8308 33.2059 15.934 31.3556 15.4399C31.3331 15.4329 31.3103 15.4269 31.2874 15.4214C29.2575 14.8914 27.1294 14.8609 25.0851 15.3326C23.0409 15.8043 21.1413 16.7642 19.549 18.1301C19.488 18.1724 19.432 18.2214 19.382 18.2761C17.4067 20.0244 16.0102 22.3325 15.3783 24.8936C14.7464 27.4547 14.909 30.1474 15.8444 32.6139C16.7798 35.0804 18.4437 37.2037 20.615 38.7017C22.7863 40.1996 25.3621 41.0013 28 41C28.092 41 28.1836 40.9984 28.2751 40.9965C28.2774 40.9965 28.2797 40.9968 28.2819 40.9968C28.2863 40.9968 28.2905 40.9963 28.2948 40.9963C30.6557 40.9406 32.9571 40.2436 34.9522 38.9799C36.9473 37.7163 38.561 35.9337 39.6205 33.8231L39.6223 33.8204C39.6526 33.7707 39.6784 33.7184 39.6996 33.6642V33.6642ZM39 28C39.0011 29.3105 38.767 30.6106 38.3086 31.8383L32.5085 28.271C32.2708 28.1244 32.0049 28.0296 31.7281 27.9927L28.8758 27.6082C28.5091 27.5606 28.1364 27.6149 27.7986 27.7652C27.4608 27.9154 27.1708 28.1558 26.9606 28.46H25.8927L25.4171 27.4774C25.2854 27.2031 25.0925 26.9627 24.8533 26.7748C24.614 26.5868 24.3348 26.4563 24.0371 26.3933L23.2162 26.2169L23.7886 24.858H26.4568C26.7949 24.8579 27.1275 24.7721 27.4236 24.6088L28.954 23.7637C29.0887 23.6893 29.2143 23.5996 29.3285 23.4965L32.6923 20.4542C32.9823 20.194 33.1894 19.8543 33.2879 19.4773C33.3865 19.1003 33.3721 18.7027 33.2465 18.3339C34.986 19.2789 36.4385 20.6756 37.451 22.3767C38.4635 24.0777 38.9986 26.0204 39 28ZM17 28C16.998 26.2772 17.4033 24.5783 18.1826 23.0419L19.4855 26.5194C19.6025 26.8338 19.797 27.1135 20.0509 27.3326C20.3049 27.5517 20.61 27.7032 20.9381 27.7728L21.6272 27.921L21.6329 27.9222L23.6168 28.3486L24.0925 29.3313C24.2573 29.6687 24.5133 29.9533 24.8315 30.1527C25.1496 30.3522 25.5173 30.4586 25.8928 30.46H26.0314L25.0695 32.6184C24.9099 32.9757 24.8588 33.372 24.9225 33.7581C24.9862 34.1442 25.1619 34.5031 25.4277 34.7903L27.7777 37.332L27.4576 38.9865C24.6388 38.844 21.9821 37.6248 20.0362 35.5804C18.0902 33.536 17.0033 30.8225 17 28V28Z" fill="#2CAE76"/>
</svg>
