<svg width="155" height="31" viewBox="0 0 155 31" fill="none" xmlns="http://www.w3.org/2000/svg">
<path d="M23.214 13.4396C22.7817 13.8775 22.4506 14.406 22.2444 14.9874C22.0381 15.5688 21.9618 16.1888 22.0208 16.8033L22.0002 16.7826C22.0609 17.5059 21.964 18.2339 21.7163 18.9156C21.4687 19.5973 21.0762 20.2165 20.5663 20.7297C20.0564 21.243 19.4414 21.6381 18.7642 21.8874C18.0869 22.1367 17.3638 22.2343 16.6453 22.1732L16.6658 22.1939C15.8063 22.1133 14.943 22.3016 14.1937 22.7331C13.4444 23.1645 12.8455 23.8181 12.4787 24.6047C12.1119 25.3913 11.995 26.2727 12.144 27.1286C12.2931 27.9845 12.7007 28.7733 13.3113 29.3875C13.922 30.0017 14.706 30.4113 15.5564 30.5605C16.4068 30.7098 17.2822 30.5913 18.0633 30.2214C18.8444 29.8514 19.4931 29.248 19.921 28.4933C20.3489 27.7386 20.5352 26.8694 20.4544 26.0042L20.4761 26.0249C20.4155 25.3016 20.5123 24.5737 20.76 23.8919C21.0077 23.2102 21.4001 22.5911 21.91 22.0778C22.4199 21.5645 23.0349 21.1694 23.7122 20.9201C24.3894 20.6708 25.1125 20.5733 25.8311 20.6343L25.8094 20.6137C26.5115 20.6772 27.2182 20.5614 27.864 20.2768C28.5097 19.9922 29.0737 19.5481 29.5036 18.9857C29.9335 18.4233 30.2154 17.7607 30.3232 17.0595C30.4309 16.3582 30.3611 15.6408 30.1202 14.9739C29.8792 14.3071 29.475 13.7122 28.9448 13.2444C28.4147 12.7767 27.7758 12.4513 27.0875 12.2983C26.3991 12.1453 25.6835 12.1696 25.007 12.3692C24.3305 12.5687 23.715 12.9369 23.2175 13.4396H23.214Z" fill="#394149"/>
<path d="M14.7984 19.486L14.7767 19.4653C15.3874 19.5273 16.0042 19.4518 16.5823 19.2444C17.1605 19.037 17.6857 18.7029 18.1199 18.2661C18.5541 17.8294 18.8864 17.301 19.0929 16.7191C19.2993 16.1372 19.3748 15.5164 19.3137 14.9016L19.3354 14.9223C19.2747 14.1989 19.3716 13.471 19.6193 12.7893C19.8669 12.1075 20.2594 11.4884 20.7693 10.9751C21.2792 10.4619 21.8942 10.0668 22.5714 9.81746C23.2487 9.56815 23.9718 9.47062 24.6903 9.53168L24.6686 9.51101C25.5282 9.59227 26.3918 9.40463 27.1415 8.97368C27.8913 8.54273 28.4907 7.88945 28.858 7.10295C29.2254 6.31645 29.3428 5.43502 29.1942 4.57888C29.0457 3.72274 28.6384 2.93358 28.0279 2.31904C27.4174 1.70449 26.6335 1.29447 25.783 1.14492C24.9325 0.995364 24.0569 1.11355 23.2756 1.48335C22.4943 1.85316 21.8453 2.45658 21.4172 3.21131C20.9891 3.96604 20.8027 4.83534 20.8834 5.70063L20.8629 5.67881C20.9238 6.40217 20.827 7.13019 20.5794 7.81202C20.3318 8.49385 19.9394 9.11305 19.4294 9.62637C18.9195 10.1397 18.3044 10.5348 17.6271 10.784C16.9497 11.0333 16.2265 11.1306 15.508 11.0694L15.5285 11.0912C14.9178 11.0293 14.301 11.1047 13.7228 11.3121C13.1447 11.5195 12.6195 11.8537 12.1853 12.2904C11.7511 12.7271 11.4188 13.2556 11.2123 13.8374C11.0058 14.4193 10.9304 15.0401 10.9915 15.6549L10.971 15.6343C11.0314 16.3575 10.9344 17.0854 10.6867 17.767C10.4389 18.4487 10.0464 19.0677 9.5366 19.5809C9.02675 20.0942 8.41181 20.4893 7.73468 20.7386C7.05754 20.988 6.3345 21.0857 5.61601 21.0248L5.63654 21.0455C4.77697 20.9642 3.91341 21.1519 3.16367 21.5828C2.41393 22.0138 1.81449 22.6671 1.44713 23.4536C1.07977 24.2401 0.962367 25.1215 1.11093 25.9776C1.2595 26.8338 1.66681 27.6229 2.27729 28.2375C2.88778 28.852 3.67173 29.262 4.52221 29.4116C5.37269 29.5611 6.24829 29.443 7.0296 29.0732C7.8109 28.7034 8.45986 28.0999 8.88796 27.3452C9.31606 26.5905 9.50247 25.7212 9.42175 24.8559L9.44342 24.8766C9.38276 24.1532 9.47965 23.4253 9.72731 22.7436C9.97498 22.0618 10.3674 21.4427 10.8773 20.9294C11.3872 20.4162 12.0023 20.0211 12.6795 19.7718C13.3567 19.5225 14.0798 19.4249 14.7984 19.486Z" fill="#394149"/>
<path d="M7.15275 17.1811C7.58513 16.7433 7.91618 16.2149 8.12226 15.6334C8.32833 15.052 8.40435 14.4319 8.34489 13.8175L8.36656 13.8381C8.30586 13.1146 8.40279 12.3865 8.65059 11.7046C8.89838 11.0226 9.29107 10.4034 9.80121 9.89008C10.3114 9.37676 10.9267 8.98172 11.6042 8.73257C12.2817 8.48342 13.0051 8.38616 13.7238 8.44757L13.7021 8.4269C14.5614 8.50794 15.4246 8.32019 16.174 7.88927C16.9234 7.45835 17.5225 6.80523 17.8897 6.01897C18.2568 5.23272 18.3741 4.35161 18.2255 3.49579C18.077 2.63997 17.6698 1.85111 17.0595 1.23679C16.4493 0.622467 15.6656 0.212582 14.8154 0.0630335C13.9653 -0.086515 13.09 0.0315525 12.3089 0.401134C11.5279 0.770715 10.8791 1.37382 10.451 2.1282C10.0229 2.88258 9.83642 3.75152 9.91692 4.61652L9.89639 4.59585C9.95704 5.31917 9.86016 6.0471 9.61249 6.72883C9.36483 7.41057 8.97236 8.02968 8.46247 8.54296C7.95258 9.05625 7.33755 9.45133 6.66032 9.70064C5.98309 9.94995 5.25998 10.0475 4.54144 9.98642L4.56197 10.0071C3.85988 9.94371 3.15326 10.0598 2.50759 10.3445C1.86191 10.6292 1.29807 11.0733 0.86832 11.6358C0.438566 12.1983 0.156802 12.8608 0.0491375 13.5621C-0.0585267 14.2634 0.0113924 14.9807 0.252416 15.6475C0.49344 16.3143 0.89777 16.9091 1.42794 17.3767C1.95811 17.8444 2.59696 18.1698 3.28529 18.3227C3.97363 18.4756 4.68918 18.4512 5.36564 18.2516C6.04209 18.0521 6.65757 17.6839 7.15503 17.1811H7.15275Z" fill="#394149"/>
<path d="M42.4917 5.72717H45.8799V22.3249H42.4917V5.72717Z" fill="#394149"/>
<path d="M47.798 16.6414C47.7933 15.4487 48.1403 14.2813 48.7951 13.2872C49.45 12.2931 50.3832 11.5171 51.4765 11.0573C52.5698 10.5975 53.7741 10.4748 54.9369 10.7045C56.0996 10.9343 57.1684 11.5063 58.0079 12.348C58.8474 13.1897 59.4199 14.2634 59.6528 15.4329C59.8857 16.6024 59.7686 17.8152 59.3163 18.9176C58.8639 20.0201 58.0967 20.9626 57.1118 21.6257C56.127 22.2889 54.9687 22.6429 53.7838 22.6429C52.9973 22.652 52.2169 22.5031 51.4881 22.205C50.7594 21.9069 50.0971 21.4655 49.5397 20.9067C48.9824 20.348 48.5413 19.683 48.2423 18.9506C47.9432 18.2182 47.7922 17.4332 47.798 16.6414ZM56.3814 16.6414C56.3673 16.1273 56.2029 15.6288 55.9089 15.2081C55.6148 14.7875 55.2041 14.4635 54.7281 14.2766C54.2521 14.0897 53.732 14.0482 53.2327 14.1572C52.7333 14.2663 52.277 14.5211 51.9208 14.8898C51.5646 15.2585 51.3242 15.7247 51.2297 16.2301C51.1353 16.7356 51.1909 17.2579 51.3897 17.7317C51.5885 18.2055 51.9217 18.6098 52.3475 18.894C52.7733 19.1783 53.2729 19.3299 53.7838 19.3298C54.1337 19.3392 54.4818 19.2755 54.806 19.1428C55.1303 19.01 55.4237 18.8111 55.6677 18.5585C55.9118 18.3059 56.1012 18.0052 56.2241 17.6752C56.3469 17.3453 56.4005 16.9933 56.3814 16.6414Z" fill="#394149"/>
<path d="M73.2738 10.9568V21.7517C73.2738 25.5712 70.3145 27.1859 67.3108 27.1859C66.2532 27.2656 65.1942 27.0505 64.25 26.5643C63.3058 26.0782 62.5129 25.3396 61.9581 24.4297L64.8489 22.7473C65.0821 23.2216 65.4536 23.6129 65.9138 23.8689C66.3739 24.1248 66.9007 24.2331 67.4237 24.1794C67.758 24.226 68.0984 24.1964 68.4197 24.0927C68.741 23.989 69.0351 23.8139 69.2801 23.5804C69.5252 23.3468 69.7149 23.0608 69.8353 22.7435C69.9557 22.4261 70.0037 22.0856 69.9757 21.7471V20.7078C69.579 21.1965 69.074 21.5847 68.5012 21.8414C67.9284 22.0981 67.3039 22.216 66.6776 22.1858C65.1875 22.1385 63.7742 21.5093 62.7367 20.4315C61.6993 19.3537 61.1191 17.9118 61.1191 16.4111C61.1191 14.9103 61.6993 13.4684 62.7367 12.3906C63.7742 11.3128 65.1875 10.6837 66.6776 10.6364C67.3039 10.6061 67.9284 10.724 68.5012 10.9807C69.074 11.2374 69.579 11.6257 69.9757 12.1143V10.9545L73.2738 10.9568ZM69.9769 16.4128C69.9996 15.8631 69.8585 15.3192 69.5715 14.8509C69.2846 14.3827 68.865 14.0116 68.3668 13.7855C67.8686 13.5593 67.3146 13.4884 66.776 13.5819C66.2375 13.6754 65.739 13.929 65.3448 14.31C64.9507 14.6911 64.6788 15.1822 64.5642 15.7201C64.4496 16.258 64.4976 16.8182 64.7019 17.3284C64.9062 17.8387 65.2576 18.2757 65.7107 18.5832C66.1639 18.8908 66.6981 19.0548 67.2446 19.0541C67.6006 19.0791 67.9579 19.0288 68.2934 18.9064C68.6289 18.7839 68.9352 18.5922 69.1926 18.3433C69.4499 18.0945 69.6527 17.7942 69.7878 17.4617C69.9229 17.1292 69.9873 16.7719 69.9769 16.4128Z" fill="#394149"/>
<path d="M75.1925 16.6414C75.1878 15.4487 75.5348 14.2813 76.1897 13.2872C76.8445 12.2931 77.7777 11.5171 78.871 11.0573C79.9644 10.5975 81.1687 10.4748 82.3314 10.7045C83.4941 10.9343 84.5629 11.5063 85.4024 12.348C86.242 13.1897 86.8144 14.2634 87.0473 15.4329C87.2803 16.6024 87.1631 17.8152 86.7108 18.9176C86.2585 20.0201 85.4913 20.9626 84.5064 21.6257C83.5215 22.2889 82.3633 22.6429 81.1784 22.6429C80.3918 22.652 79.6114 22.5031 78.8827 22.205C78.154 21.9069 77.4916 21.4655 76.9343 20.9067C76.377 20.348 75.9359 19.683 75.6368 18.9506C75.3378 18.2182 75.1867 17.4332 75.1925 16.6414ZM83.776 16.6414C83.7618 16.1273 83.5975 15.6288 83.3034 15.2081C83.0094 14.7875 82.5987 14.4635 82.1227 14.2766C81.6467 14.0897 81.1265 14.0482 80.6272 14.1572C80.1279 14.2663 79.6716 14.5211 79.3153 14.8898C78.9591 15.2585 78.7187 15.7247 78.6242 16.2301C78.5298 16.7356 78.5854 17.2579 78.7842 17.7317C78.983 18.2055 79.3162 18.6098 79.742 18.894C80.1678 19.1783 80.6674 19.3299 81.1784 19.3298C81.5283 19.3392 81.8763 19.2755 82.2006 19.1428C82.5248 19.01 82.8182 18.8111 83.0623 18.5585C83.3063 18.3059 83.4957 18.0052 83.6186 17.6752C83.7414 17.3453 83.795 16.9933 83.776 16.6414Z" fill="#394149"/>
<path d="M88.7441 7.91021C88.7441 7.50547 88.8634 7.10981 89.0868 6.77327C89.3101 6.43674 89.6276 6.17444 89.9991 6.01955C90.3706 5.86466 90.7793 5.82413 91.1737 5.90309C91.568 5.98205 91.9302 6.17696 92.2145 6.46316C92.4989 6.74936 92.6925 7.114 92.7709 7.51097C92.8494 7.90794 92.8091 8.31941 92.6552 8.69335C92.5014 9.06729 92.2408 9.3869 91.9065 9.61177C91.5722 9.83663 91.1791 9.95666 90.7771 9.95666C90.2396 9.95127 89.7256 9.73394 89.3455 9.35132C88.9654 8.96869 88.7495 8.45129 88.7441 7.91021ZM89.0864 10.9569H92.4757V22.326H89.0818L89.0864 10.9569Z" fill="#394149"/>
<path d="M107.105 16.6414C107.144 17.3928 107.036 18.1446 106.785 18.8535C106.535 19.5624 106.148 20.2145 105.646 20.7722C105.144 21.3299 104.538 21.7823 103.862 22.1034C103.186 22.4245 102.454 22.6078 101.707 22.643C101.079 22.6775 100.452 22.5709 99.8696 22.3309C99.2877 22.091 98.7662 21.7237 98.3428 21.2557V26.8725H94.9546V10.9569H98.3428V12.0249C98.7664 11.5572 99.288 11.1903 99.8699 10.9505C100.452 10.7108 101.079 10.6043 101.707 10.6388C102.454 10.6738 103.186 10.8571 103.862 11.1782C104.539 11.4992 105.145 11.9517 105.647 12.5096C106.148 13.0675 106.536 13.7198 106.786 14.4289C107.036 15.138 107.145 15.8899 107.105 16.6414ZM103.717 16.6414C103.704 16.1094 103.535 15.593 103.232 15.1571C102.928 14.7211 102.504 14.3849 102.012 14.1905C101.52 13.9961 100.981 13.9522 100.465 14.0642C99.9477 14.1762 99.4751 14.4392 99.106 14.8203C98.7368 15.2013 98.4875 15.6835 98.3893 16.2065C98.2911 16.7295 98.3482 17.27 98.5537 17.7604C98.7591 18.2509 99.1037 18.6694 99.5442 18.9637C99.9848 19.258 100.502 19.4149 101.031 19.4148C101.394 19.4311 101.756 19.3699 102.094 19.2354C102.432 19.1008 102.737 18.8959 102.991 18.634C103.245 18.3721 103.441 18.0592 103.566 17.7159C103.691 17.3725 103.742 17.0063 103.717 16.6414Z" fill="#394149"/>
<path d="M117.561 18.9141C117.561 21.529 115.303 22.6429 112.864 22.6429C111.879 22.7328 110.889 22.523 110.023 22.0406C109.158 21.5583 108.456 20.8256 108.008 19.9373L110.943 18.2549C111.062 18.6655 111.317 19.0227 111.666 19.2668C112.015 19.5109 112.436 19.6272 112.86 19.5962C113.672 19.5962 114.079 19.3459 114.079 18.8922C114.079 17.6405 108.522 18.3008 108.522 14.3676C108.522 11.8882 110.601 10.6387 112.95 10.6387C113.833 10.6106 114.707 10.8214 115.482 11.2492C116.256 11.677 116.903 12.3062 117.353 13.071L114.462 14.6397C114.336 14.3419 114.125 14.0883 113.856 13.9104C113.587 13.7325 113.272 13.6383 112.95 13.6395C112.362 13.6395 112.001 13.8692 112.001 14.2757C112.005 15.5722 117.561 14.7075 117.561 18.9141Z" fill="#394149"/>
<path d="M129.938 10.9569V22.326H126.55V21.2569C126.159 21.7286 125.662 22.1004 125.101 22.3415C124.54 22.5827 123.93 22.6864 123.321 22.6441C121.039 22.6441 119.1 21.0077 119.1 17.9357V10.9569H122.488V17.4362C122.46 17.7069 122.491 17.9807 122.578 18.2383C122.665 18.496 122.808 18.7314 122.995 18.9281C123.181 19.1249 123.409 19.2782 123.661 19.3776C123.912 19.4769 124.183 19.5198 124.453 19.5033C125.695 19.5033 126.553 18.7763 126.553 17.1617V10.9604L129.938 10.9569Z" fill="#394149"/>
<path d="M149.366 15.3448V22.3247H145.977V15.6399C145.977 14.503 145.436 13.7761 144.352 13.7761C143.222 13.7761 142.589 14.5719 142.589 15.9133V22.3247H139.202V15.6399C139.202 14.503 138.66 13.7761 137.575 13.7761C136.446 13.7761 135.814 14.5719 135.814 15.9133V22.3247H132.426V10.9556H135.814V12.0007C136.165 11.537 136.626 11.1694 137.155 10.9313C137.684 10.6931 138.263 10.5922 138.841 10.6375C139.42 10.609 139.998 10.7321 140.516 10.995C141.034 11.2578 141.476 11.6514 141.799 12.1373C142.174 11.629 142.671 11.2247 143.244 10.9624C143.817 10.7002 144.447 10.5884 145.074 10.6375C147.667 10.6387 149.366 12.5025 149.366 15.3448Z" fill="#394149"/>
<path d="M152.232 10.8868C153.62 10.8868 154.746 9.75364 154.746 8.35577C154.746 6.9579 153.62 5.82471 152.232 5.82471C150.843 5.82471 149.717 6.9579 149.717 8.35577C149.717 9.75364 150.843 10.8868 152.232 10.8868Z" fill="#394149"/>
</svg>
