<svg width="135" height="28" viewBox="0 0 135 28" fill="none" xmlns="http://www.w3.org/2000/svg">
<path d="M43.7658 22.0546C43.0872 22.0916 42.4161 21.8975 41.8606 21.5034C41.6285 21.3302 41.4418 21.1027 41.3165 20.8406C41.1913 20.5785 41.1314 20.2896 41.1419 19.999V9.35337C41.1364 9.3083 41.1411 9.26255 41.1558 9.2196C41.1704 9.17665 41.1946 9.13763 41.2265 9.10552C41.2584 9.0734 41.2972 9.04904 41.3398 9.03428C41.3825 9.01952 41.428 9.01475 41.4727 9.02033H43.3893C43.606 9.02033 43.7087 9.13517 43.7087 9.35337V19.1722C43.7087 19.6085 43.9026 19.8267 44.3019 19.8267C44.4712 19.8338 44.6405 19.8144 44.8039 19.7693C45.0321 19.7693 45.1575 19.8382 45.1689 20.0449L45.3401 21.4804C45.3483 21.5223 45.3475 21.5654 45.3378 21.6069C45.328 21.6485 45.3096 21.6874 45.2836 21.7211C45.2577 21.7549 45.2249 21.7826 45.1874 21.8025C45.1499 21.8224 45.1086 21.834 45.0663 21.8364C44.6465 21.976 44.2078 22.0496 43.7658 22.0546Z" fill="#394149"/>
<path d="M54.5465 20.8257C53.5835 21.6267 52.3733 22.0649 51.1241 22.0649C49.8749 22.0649 48.6647 21.6267 47.7017 20.8257C46.8552 19.9656 46.3804 18.8038 46.3804 17.593C46.3804 16.3823 46.8552 15.2205 47.7017 14.3603C48.6666 13.5634 49.876 13.1279 51.1241 13.1279C52.3721 13.1279 53.5816 13.5634 54.5465 14.3603C55.3734 15.2284 55.8351 16.3846 55.8351 17.5873C55.8351 18.79 55.3734 19.9462 54.5465 20.8143V20.8257ZM49.5041 19.3099C49.951 19.7174 50.5325 19.9431 51.1355 19.9431C51.7385 19.9431 52.3199 19.7174 52.7668 19.3099C53.1713 18.8417 53.3941 18.2422 53.3941 17.6217C53.3941 17.0013 53.1713 16.4017 52.7668 15.9336C52.3199 15.5261 51.7385 15.3004 51.1355 15.3004C50.5325 15.3004 49.951 15.5261 49.5041 15.9336C49.0997 16.4017 48.8769 17.0013 48.8769 17.6217C48.8769 18.2422 49.0997 18.8417 49.5041 19.3099Z" fill="#394149"/>
<path d="M66.3883 13.4186C66.6051 13.4186 66.7078 13.5334 66.7078 13.7516V21.9856C66.7277 22.5414 66.6244 23.0946 66.4054 23.6051C66.1863 24.1156 65.857 24.5706 65.4415 24.937C64.519 25.7288 63.3328 26.1391 62.1217 26.0854C61.0279 26.1241 59.9486 25.8234 59.0301 25.2241C58.6379 24.9648 58.3029 24.6272 58.0458 24.2321C57.7887 23.8369 57.6151 23.3928 57.5357 22.9273C57.5357 22.6976 57.5357 22.5943 57.8437 22.5943H59.7603C59.8416 22.5971 59.9205 22.6235 59.9873 22.6704C60.0541 22.7172 60.106 22.7825 60.1367 22.8584C60.261 23.2072 60.5088 23.4975 60.8326 23.6738C61.2272 23.8787 61.6664 23.9814 62.1103 23.9724C62.3782 23.9871 62.6463 23.948 62.8989 23.8573C63.1516 23.7666 63.3838 23.6261 63.582 23.4441C63.763 23.2536 63.9038 23.0283 63.9959 22.7816C64.0881 22.5349 64.1297 22.2719 64.1181 22.0086V21.2851C63.4319 21.7932 62.5968 22.0559 61.7453 22.0316C61.1493 22.0534 60.5551 21.9538 59.9984 21.7386C59.4416 21.5235 58.9338 21.1974 58.5054 20.7798C57.6829 19.9233 57.2231 18.7786 57.2231 17.5873C57.2231 16.396 57.6829 15.2513 58.5054 14.3947C58.9359 13.9808 59.4443 13.6579 60.0007 13.4448C60.5572 13.2318 61.1503 13.1331 61.7453 13.1545C62.6214 13.1312 63.479 13.4108 64.1752 13.9469V13.7631C64.1699 13.7191 64.1745 13.6745 64.1885 13.6325C64.2026 13.5904 64.2257 13.5521 64.2563 13.5202C64.2869 13.4883 64.3241 13.4637 64.3654 13.4481C64.4066 13.4325 64.4507 13.4264 64.4946 13.4301L66.3883 13.4186ZM61.962 19.9874C62.2559 19.9966 62.5482 19.9406 62.8183 19.8236C63.0884 19.7065 63.3296 19.5311 63.5249 19.3099C63.9042 18.8168 64.11 18.2109 64.11 17.5873C64.11 16.9637 63.9042 16.3577 63.5249 15.8647C63.3303 15.6464 63.0905 15.4737 62.8225 15.3586C62.5544 15.2435 62.2646 15.1889 61.9734 15.1986C61.6761 15.1892 61.3804 15.2449 61.1066 15.3619C60.8328 15.4789 60.5875 15.6544 60.3877 15.8762C59.9675 16.3478 59.7466 16.9657 59.7717 17.5988C59.7511 18.2256 59.9671 18.837 60.3763 19.3099C60.5766 19.5311 60.8219 19.7061 61.0956 19.8231C61.3693 19.94 61.6648 19.9961 61.962 19.9874Z" fill="#394149"/>
<path d="M76.553 20.8258C75.5881 21.6226 74.3786 22.0581 73.1306 22.0581C71.8825 22.0581 70.673 21.6226 69.7081 20.8258C68.8805 19.9558 68.4185 18.7977 68.4185 17.5931C68.4185 16.3885 68.8805 15.2303 69.7081 14.3603C70.674 13.5655 71.8831 13.1313 73.1306 13.1313C74.378 13.1313 75.5872 13.5655 76.553 14.3603C77.3799 15.2284 77.8416 16.3846 77.8416 17.5873C77.8416 18.79 77.3799 19.9462 76.553 20.8143V20.8258ZM71.4992 19.3099C71.7179 19.5194 71.9757 19.683 72.2577 19.7914C72.5397 19.8999 72.8403 19.9509 73.142 19.9415C73.4418 19.9494 73.7402 19.8976 74.0201 19.7892C74.3 19.6808 74.556 19.518 74.7733 19.3099C75.1712 18.8386 75.3897 18.2403 75.3897 17.6218C75.3897 17.0033 75.1712 16.4049 74.7733 15.9336C74.556 15.7256 74.3 15.5627 74.0201 15.4543C73.7402 15.346 73.4418 15.2942 73.142 15.302C72.8403 15.2927 72.5397 15.3437 72.2577 15.4521C71.9757 15.5605 71.7179 15.7242 71.4992 15.9336C71.1013 16.4049 70.8829 17.0033 70.8829 17.6218C70.8829 18.2403 71.1013 18.8386 71.4992 19.3099Z" fill="#394149"/>
<path d="M81.96 11.4663C81.6585 11.732 81.2713 11.8785 80.8706 11.8785C80.4698 11.8785 80.0827 11.732 79.7811 11.4663C79.6444 11.3364 79.5354 11.1798 79.461 11.006C79.3865 10.8322 79.3481 10.645 79.3481 10.4557C79.3481 10.2665 79.3865 10.0792 79.461 9.90544C79.5354 9.73166 79.6444 9.57502 79.7811 9.44513C80.0858 9.18607 80.4717 9.04395 80.8706 9.04395C81.2694 9.04395 81.6554 9.18607 81.96 9.44513C82.0968 9.57502 82.2057 9.73166 82.2802 9.90544C82.3546 10.0792 82.393 10.2665 82.393 10.4557C82.393 10.645 82.3546 10.8322 82.2802 11.006C82.2057 11.1798 82.0968 11.3364 81.96 11.4663ZM82.1996 22.0545C81.5215 22.088 80.8515 21.8941 80.2945 21.5033C80.0659 21.3275 79.8824 21.0993 79.7594 20.8376C79.6363 20.5758 79.5773 20.2883 79.5872 19.9989V13.7516C79.5816 13.7066 79.5864 13.6608 79.601 13.6178C79.6157 13.5749 79.6399 13.5359 79.6718 13.5038C79.7037 13.4717 79.7424 13.4473 79.7851 13.4325C79.8278 13.4178 79.8732 13.413 79.918 13.4186H81.8346C82.0513 13.4186 82.154 13.5334 82.154 13.7516V19.1721C82.154 19.6084 82.3479 19.8266 82.7358 19.8266C82.9088 19.8329 83.0818 19.8136 83.2492 19.7692C83.4773 19.7692 83.6028 19.8381 83.6142 20.0448L83.7853 21.4803C83.7936 21.5222 83.7928 21.5653 83.783 21.6068C83.7733 21.6484 83.7548 21.6873 83.7289 21.721C83.703 21.7548 83.6701 21.7825 83.6326 21.8024C83.5951 21.8223 83.5539 21.8339 83.5115 21.8363C83.088 21.9767 82.6455 22.0503 82.1996 22.0545Z" fill="#394149"/>
<path d="M90.836 13.143C91.4347 13.1192 92.032 13.2167 92.5924 13.4298C93.1529 13.6429 93.6652 13.9671 94.0987 14.3833C94.9055 15.2549 95.354 16.4018 95.354 17.5931C95.354 18.7843 94.9055 19.9313 94.0987 20.8028C93.6672 21.2227 93.1556 21.5502 92.5948 21.7653C92.034 21.9805 91.4357 22.0789 90.836 22.0546C89.9817 22.0737 89.1446 21.8116 88.4518 21.3081V25.4538C88.4518 25.672 88.3377 25.7754 88.1209 25.7754H86.2044C86.1606 25.7836 86.1156 25.781 86.0731 25.7677C86.0306 25.7545 85.9919 25.731 85.9605 25.6994C85.929 25.6677 85.9057 25.6288 85.8925 25.586C85.8794 25.5432 85.8768 25.4979 85.8849 25.4538V16.037C85.8984 15.9449 85.8902 15.8509 85.8611 15.7625C85.8321 15.6742 85.7829 15.5938 85.7175 15.528C85.6521 15.4622 85.5723 15.4127 85.4845 15.3834C85.3967 15.3541 85.3034 15.3459 85.2119 15.3594H84.8354C84.5844 15.3594 84.4589 15.2676 84.4589 15.0838V13.7287C84.453 13.6449 84.4758 13.5615 84.5236 13.4926C84.5713 13.4236 84.6411 13.3732 84.7213 13.3498C85.1159 13.2054 85.5336 13.1353 85.9534 13.143C86.372 13.1057 86.7922 13.1951 87.1601 13.3997C87.528 13.6043 87.8268 13.9148 88.0182 14.2914C88.3857 13.9173 88.8251 13.6224 89.3096 13.425C89.7941 13.2275 90.3135 13.1316 90.836 13.143ZM89.0564 19.3099C89.2598 19.5239 89.5041 19.6942 89.7747 19.8106C90.0453 19.9269 90.3365 19.9869 90.6307 19.9869C90.9249 19.9869 91.2161 19.9269 91.4867 19.8106C91.7572 19.6942 92.0016 19.5239 92.205 19.3099C92.6335 18.8289 92.8586 18.1985 92.8325 17.5529C92.8623 16.9067 92.6367 16.275 92.205 15.7958C92.0016 15.5818 91.7572 15.4115 91.4867 15.2952C91.2161 15.1788 90.9249 15.1188 90.6307 15.1188C90.3365 15.1188 90.0453 15.1788 89.7747 15.2952C89.5041 15.4115 89.2598 15.5818 89.0564 15.7958C88.6413 16.2834 88.4252 16.9113 88.4518 17.5529C88.4286 18.194 88.6442 18.8206 89.0564 19.3099Z" fill="#394149"/>
<path d="M100.738 22.0546C99.7135 22.097 98.698 21.8504 97.8058 21.3426C97.4477 21.1255 97.1429 20.8301 96.9138 20.4782C96.6847 20.1263 96.5373 19.727 96.4824 19.31C96.4824 19.0803 96.5623 18.9654 96.8133 18.9654H98.4902C98.57 18.9686 98.6474 18.9938 98.7138 19.0384C98.7802 19.083 98.8332 19.1452 98.8667 19.2181C99.1063 19.8382 99.7337 20.1483 100.738 20.1483C101.088 20.1644 101.437 20.0934 101.753 19.9416C101.862 19.8919 101.956 19.8134 102.024 19.7142C102.093 19.6151 102.133 19.4992 102.141 19.3789C102.141 19.0803 101.958 18.8736 101.593 18.7358C101.16 18.5907 100.713 18.4944 100.259 18.4487C99.7206 18.3874 99.1871 18.2915 98.6614 18.1616C98.1501 18.0451 97.6852 17.7771 97.3266 17.3921C97.1155 17.1305 96.96 16.8279 96.87 16.5032C96.7799 16.1786 96.7572 15.8387 96.8032 15.5048C96.8492 15.1709 96.963 14.8501 97.1374 14.5623C97.3119 14.2746 97.5432 14.026 97.8172 13.8321C98.6394 13.3048 99.6042 13.048 100.578 13.0971C101.521 13.065 102.453 13.2998 103.27 13.7747C103.599 13.9624 103.883 14.2216 104.1 14.5335C104.317 14.8454 104.462 15.2021 104.525 15.5777C104.525 15.8073 104.422 15.9222 104.217 15.9222H102.529C102.458 15.9264 102.387 15.909 102.326 15.8721C102.265 15.8352 102.216 15.7806 102.186 15.7155C102.074 15.4435 101.861 15.2256 101.593 15.1068C101.291 14.9476 100.953 14.8685 100.612 14.8771C100.278 14.8588 99.9442 14.926 99.6425 15.0724C99.5362 15.1137 99.4446 15.186 99.3795 15.2802C99.3145 15.3743 99.2789 15.4859 99.2774 15.6006C99.2847 15.7577 99.3418 15.9082 99.4404 16.0302C99.5389 16.1521 99.6737 16.2391 99.825 16.2782C100.263 16.4444 100.719 16.56 101.183 16.6227C101.716 16.6934 102.245 16.793 102.768 16.9213C103.28 17.0378 103.744 17.3058 104.103 17.6907C104.295 17.9028 104.443 18.151 104.539 18.421C104.635 18.6911 104.677 18.9776 104.662 19.264C104.672 19.661 104.579 20.0538 104.393 20.404C104.207 20.7542 103.934 21.0499 103.601 21.2622C102.749 21.813 101.75 22.0894 100.738 22.0546Z" fill="#394149"/>
<path d="M116.72 21.4803C116.727 21.5211 116.725 21.5628 116.715 21.6029C116.706 21.643 116.688 21.6807 116.664 21.7139C116.639 21.747 116.608 21.775 116.573 21.796C116.538 21.817 116.499 21.8307 116.458 21.8363C116.042 21.9732 115.607 22.0468 115.169 22.0545C114.735 22.0997 114.298 22.0315 113.898 21.8565C113.498 21.6814 113.15 21.4055 112.887 21.0554C112.081 21.7528 111.04 22.1107 109.978 22.0545C109.486 22.0774 108.993 21.9962 108.534 21.8162C108.074 21.6363 107.657 21.3615 107.309 21.0095C106.963 20.6407 106.695 20.2055 106.521 19.7299C106.346 19.2543 106.269 18.7482 106.293 18.2418V13.7516C106.293 13.5334 106.396 13.4186 106.613 13.4186H108.529C108.746 13.4186 108.849 13.5334 108.849 13.7516V17.8973C108.828 18.4138 109.003 18.9189 109.339 19.3099C109.507 19.4889 109.711 19.6298 109.937 19.7229C110.164 19.816 110.407 19.8592 110.651 19.8496C110.901 19.8606 111.151 19.8216 111.386 19.7349C111.621 19.6482 111.837 19.5154 112.02 19.3443C112.194 19.164 112.329 18.9496 112.418 18.7146C112.506 18.4795 112.546 18.2287 112.534 17.9777V13.7516C112.534 13.5334 112.636 13.4186 112.853 13.4186H114.793C115.009 13.4186 115.112 13.5334 115.112 13.7516V19.1606C115.112 19.6084 115.306 19.8266 115.682 19.8266C115.859 19.8335 116.036 19.8142 116.207 19.7692C116.25 19.757 116.296 19.7549 116.34 19.7628C116.384 19.7708 116.425 19.7887 116.462 19.8152C116.498 19.8418 116.528 19.8762 116.549 19.9159C116.57 19.9557 116.582 19.9998 116.584 20.0448L116.72 21.4803Z" fill="#394149"/>
<path d="M134.848 21.4803C134.858 21.5215 134.859 21.5643 134.851 21.6059C134.843 21.6474 134.825 21.6866 134.8 21.7207C134.775 21.7547 134.743 21.7827 134.706 21.8027C134.669 21.8227 134.628 21.8342 134.586 21.8363C134.162 21.9752 133.719 22.0487 133.274 22.0545C132.595 22.0898 131.925 21.8957 131.368 21.5033C131.128 21.3352 130.932 21.1099 130.799 20.8475C130.666 20.5851 130.599 20.2936 130.604 19.9989V17.3002C130.628 16.7852 130.457 16.2803 130.125 15.8876C129.965 15.7082 129.767 15.5666 129.546 15.4733C129.325 15.38 129.087 15.3371 128.847 15.3479C128.632 15.3397 128.417 15.3809 128.219 15.4684C128.022 15.556 127.846 15.6875 127.706 15.8532C127.405 16.238 127.252 16.7189 127.273 17.2083V21.4459C127.273 21.6641 127.17 21.7789 126.954 21.7789H125.026C124.981 21.7845 124.935 21.7797 124.893 21.765C124.85 21.7502 124.811 21.7258 124.779 21.6937C124.747 21.6616 124.723 21.6226 124.709 21.5797C124.694 21.5367 124.689 21.491 124.695 21.4459V17.3002C124.72 16.7908 124.562 16.2895 124.25 15.8876C124.111 15.7189 123.936 15.583 123.739 15.4897C123.542 15.3964 123.327 15.348 123.109 15.3479C122.876 15.3384 122.644 15.3786 122.428 15.4656C122.212 15.5527 122.016 15.6848 121.854 15.8532C121.528 16.2257 121.36 16.7123 121.386 17.2083V21.4459C121.392 21.491 121.387 21.5367 121.373 21.5797C121.358 21.6226 121.334 21.6616 121.302 21.6937C121.27 21.7258 121.231 21.7502 121.188 21.765C121.146 21.7797 121.1 21.7845 121.056 21.7789H119.196C118.979 21.7789 118.877 21.6641 118.877 21.4459V16.0369C118.89 15.9448 118.882 15.8508 118.853 15.7625C118.824 15.6741 118.775 15.5938 118.709 15.528C118.644 15.4621 118.564 15.4126 118.476 15.3833C118.388 15.3541 118.295 15.3459 118.204 15.3594H117.827C117.576 15.3594 117.451 15.2675 117.451 15.0838V13.7287C117.445 13.6448 117.468 13.5615 117.515 13.4925C117.563 13.4235 117.633 13.3731 117.713 13.3497C118.108 13.2053 118.525 13.1352 118.945 13.143C119.348 13.1084 119.753 13.1893 120.112 13.3762C120.471 13.5632 120.771 13.8486 120.976 14.1995C121.361 13.8323 121.817 13.5489 122.315 13.3672C122.814 13.1854 123.344 13.1091 123.873 13.143C124.387 13.1177 124.9 13.2148 125.37 13.4263C125.84 13.6378 126.253 13.9578 126.577 14.3603C126.955 13.9472 127.419 13.6237 127.936 13.4132C128.452 13.2027 129.009 13.1104 129.566 13.143C130.064 13.1195 130.561 13.2003 131.027 13.3802C131.492 13.56 131.915 13.8351 132.27 14.188C132.616 14.5561 132.885 14.9912 133.06 15.4669C133.234 15.9427 133.311 16.4492 133.285 16.9557V19.1721C133.285 19.6085 133.479 19.8266 133.844 19.8266C134.021 19.8349 134.198 19.8156 134.369 19.7692C134.605 19.7692 134.73 19.8611 134.745 20.0448L134.848 21.4803Z" fill="#394149"/>
<path d="M1.07662 11.9258C1.91827 8.5204 3.86752 5.49638 6.61399 3.33521C9.36046 1.17405 12.7462 0 16.2322 0C19.7183 0 23.104 1.17405 25.8505 3.33521C28.597 5.49638 30.5462 8.5204 31.3879 11.9258H30.0189C27.7096 11.8915 25.4475 12.5863 23.5505 13.9125C23.441 13.9923 23.3267 14.0652 23.2083 14.1307H23.0486C22.9301 14.0652 22.8158 13.9923 22.7063 13.9125C20.7925 12.617 18.5385 11.9251 16.2322 11.9251C13.926 11.9251 11.672 12.617 9.75817 13.9125C9.64868 13.9923 9.53438 14.0652 9.41592 14.1307H9.25621C9.13775 14.0652 9.02345 13.9923 8.91397 13.9125C7.01696 12.5863 4.75494 11.8915 2.44559 11.9258H1.07662ZM27.5548 19.1262C28.2575 18.5753 29.1285 18.2871 30.0189 18.3109H31.8556V14.6245H30.0189C28.4506 14.6054 26.918 15.0968 25.6496 16.0255C24.9358 16.5553 24.0723 16.8411 23.1855 16.8411C22.2987 16.8411 21.4351 16.5553 20.7213 16.0255C19.4207 15.1141 17.874 14.6256 16.2893 14.6256C14.7046 14.6256 13.1579 15.1141 11.8573 16.0255C11.1434 16.5553 10.2799 16.8411 9.39311 16.8411C8.50629 16.8411 7.64276 16.5553 6.92896 16.0255C5.64487 15.0849 4.0904 14.5929 2.50263 14.6245H0.608887V18.3109H2.44559C3.336 18.2871 4.20698 18.5753 4.90973 19.1262C6.20798 20.0382 7.75296 20.5272 9.33607 20.5272C10.9192 20.5272 12.4642 20.0382 13.7624 19.1262C14.4661 18.577 15.3364 18.289 16.2265 18.3109C17.1172 18.2852 17.9889 18.5736 18.6907 19.1262C19.9913 20.0376 21.538 20.5262 23.1227 20.5262C24.7074 20.5262 26.2541 20.0376 27.5548 19.1262ZM27.5548 25.718C28.2575 25.1671 29.1285 24.8789 30.0189 24.9026H31.8556V21.2163H30.0189C28.4506 21.1972 26.918 21.6886 25.6496 22.6173C24.9358 23.1471 24.0723 23.4329 23.1855 23.4329C22.2987 23.4329 21.4351 23.1471 20.7213 22.6173C19.4207 21.7059 17.874 21.2174 16.2893 21.2174C14.7046 21.2174 13.1579 21.7059 11.8573 22.6173C11.1434 23.1471 10.2799 23.4329 9.39311 23.4329C8.50629 23.4329 7.64276 23.1471 6.92896 22.6173C5.64487 21.6767 4.0904 21.1847 2.50263 21.2163H0.608887V24.9026H2.44559C3.336 24.8789 4.20698 25.1671 4.90973 25.718C6.20798 26.63 7.75296 27.119 9.33607 27.119C10.9192 27.119 12.4642 26.63 13.7624 25.718C14.4661 25.1688 15.3364 24.8808 16.2265 24.9026C17.1172 24.8769 17.9889 25.1654 18.6907 25.718C19.9913 26.6294 21.538 27.118 23.1227 27.118C24.7074 27.118 26.2541 26.6294 27.5548 25.718Z" fill="#394149"/>
</svg>
