<?xml version="1.0" encoding="UTF-8" standalone="no"?>
<!-- Generator: Adobe Illustrator 24.3.0, SVG Export Plug-In . SVG Version: 6.00 Build 0)  -->

<svg
   version="1.1"
   id="Layer_1"
   x="0px"
   y="0px"
   viewBox="0 0 629.5 76"
   xml:space="preserve"
   sodipodi:docname="logo-overmind-dark.svg"
   width="629.5"
   height="76"
   inkscape:version="1.1.2 (b8e25be8, 2022-02-05)"
   xmlns:inkscape="http://www.inkscape.org/namespaces/inkscape"
   xmlns:sodipodi="http://sodipodi.sourceforge.net/DTD/sodipodi-0.dtd"
   xmlns="http://www.w3.org/2000/svg"
   xmlns:svg="http://www.w3.org/2000/svg"><defs
   id="defs544" /><sodipodi:namedview
   id="namedview542"
   pagecolor="#ffffff"
   bordercolor="#666666"
   borderopacity="1.0"
   inkscape:pageshadow="2"
   inkscape:pageopacity="0.0"
   inkscape:pagecheckerboard="0"
   showgrid="false"
   fit-margin-top="0"
   fit-margin-left="0"
   fit-margin-right="0"
   fit-margin-bottom="0"
   inkscape:zoom="1.5459477"
   inkscape:cx="322.45594"
   inkscape:cy="147.80578"
   inkscape:window-width="1296"
   inkscape:window-height="969"
   inkscape:window-x="0"
   inkscape:window-y="25"
   inkscape:window-maximized="0"
   inkscape:current-layer="g537" />
<style
   type="text/css"
   id="style447">
	.st0{fill:url(#SVGID_1_);}
	.st1{fill:url(#SVGID_2_);}
	.st2{fill:url(#SVGID_3_);}
	.st3{fill:url(#SVGID_4_);}
	.st4{fill:#4A0A7C;}
	.st5{fill:url(#SVGID_5_);}
	.st6{fill:url(#SVGID_6_);}
	.st7{fill:url(#SVGID_7_);}
	.st8{fill:url(#SVGID_8_);}
</style>
<g
   id="g539"
   transform="translate(-185.3,-462)">
	<g
   id="g517">
		<g
   id="g464">
			<linearGradient
   id="SVGID_1_"
   gradientUnits="userSpaceOnUse"
   x1="193.6395"
   y1="499.9924"
   x2="409.6532"
   y2="499.9924">
				<stop
   offset="0"
   style="stop-color:#1BADF2"
   id="stop449" />
				<stop
   offset="0.2039"
   style="stop-color:#4B6DDF"
   id="stop451" />
				<stop
   offset="0.405"
   style="stop-color:#5F51D5"
   id="stop453" />
				<stop
   offset="0.6006"
   style="stop-color:#C640AD"
   id="stop455" />
				<stop
   offset="0.8073"
   style="stop-color:#EF4971"
   id="stop457" />
				<stop
   offset="1"
   style="stop-color:#FD6E43"
   id="stop459" />
			</linearGradient>
			<path
   class="st0"
   d="m 223.3,538 c -21,0 -38,-17.1 -38,-38 0,-21 17.1,-38 38,-38 20.9,0 38,17.1 38,38 0.1,21 -17,38 -38,38 z m 0,-57.9 c -11,0 -19.9,8.9 -19.9,19.9 0,11 8.9,19.9 19.9,19.9 11,0 19.9,-8.9 19.9,-19.9 0,-11 -8.9,-19.9 -19.9,-19.9 z"
   id="path462"
   style="fill:url(#SVGID_1_)" />
		</g>
		<g
   id="g481">
			<linearGradient
   id="SVGID_2_"
   gradientUnits="userSpaceOnUse"
   x1="193.6395"
   y1="503.74091"
   x2="409.6532"
   y2="503.74091">
				<stop
   offset="0"
   style="stop-color:#1BADF2"
   id="stop466" />
				<stop
   offset="0.2039"
   style="stop-color:#4B6DDF"
   id="stop468" />
				<stop
   offset="0.405"
   style="stop-color:#5F51D5"
   id="stop470" />
				<stop
   offset="0.6006"
   style="stop-color:#C640AD"
   id="stop472" />
				<stop
   offset="0.8073"
   style="stop-color:#EF4971"
   id="stop474" />
				<stop
   offset="1"
   style="stop-color:#FD6E43"
   id="stop476" />
			</linearGradient>
			<path
   class="st1"
   d="m 294.4,538 c -3.2,0 -6.2,-1.2 -8.4,-3.5 l -49.6,-49.6 c -3.5,-3.5 -3.5,-9.3 0,-12.8 3.5,-3.5 9.3,-3.5 12.8,0 l 45.2,45.2 22.5,-22.5 c 3.5,-3.5 9.3,-3.5 12.8,0 3.5,3.5 3.5,9.3 0,12.8 l -27,27 c -2.2,2.2 -5.1,3.4 -8.3,3.4 z"
   id="path479"
   style="fill:url(#SVGID_2_)" />
		</g>
		<g
   id="g498">
			<linearGradient
   id="SVGID_3_"
   gradientUnits="userSpaceOnUse"
   x1="193.6395"
   y1="500.0459"
   x2="409.6532"
   y2="500.0459">
				<stop
   offset="0"
   style="stop-color:#1BADF2"
   id="stop483" />
				<stop
   offset="0.2039"
   style="stop-color:#4B6DDF"
   id="stop485" />
				<stop
   offset="0.405"
   style="stop-color:#5F51D5"
   id="stop487" />
				<stop
   offset="0.6006"
   style="stop-color:#C640AD"
   id="stop489" />
				<stop
   offset="0.8073"
   style="stop-color:#EF4971"
   id="stop491" />
				<stop
   offset="1"
   style="stop-color:#FD6E43"
   id="stop493" />
			</linearGradient>
			<path
   class="st2"
   d="m 336.8,538 c -2.3,0 -4.6,-0.9 -6.4,-2.7 -3.5,-3.5 -3.5,-9.3 0,-12.8 l 8,-8 c 7.8,-7.8 7.8,-20.6 0,-28.5 -7.8,-7.8 -20.6,-7.8 -28.5,0 l -9.7,9.7 c -3.5,3.5 -9.3,3.5 -12.8,0 -3.5,-3.5 -3.5,-9.3 0,-12.8 l 9.7,-9.7 c 14.9,-14.9 39.2,-14.9 54.1,0 14.9,14.9 14.9,39.2 0,54.1 l -8,8 c -1.8,1.8 -4.1,2.7 -6.4,2.7 z"
   id="path496"
   style="fill:url(#SVGID_3_)" />
		</g>
		<g
   id="g515">
			<linearGradient
   id="SVGID_4_"
   gradientUnits="userSpaceOnUse"
   x1="193.6395"
   y1="499.5546"
   x2="409.6532"
   y2="499.5546">
				<stop
   offset="0"
   style="stop-color:#1BADF2"
   id="stop500" />
				<stop
   offset="0.2039"
   style="stop-color:#4B6DDF"
   id="stop502" />
				<stop
   offset="0.405"
   style="stop-color:#5F51D5"
   id="stop504" />
				<stop
   offset="0.6006"
   style="stop-color:#C640AD"
   id="stop506" />
				<stop
   offset="0.8073"
   style="stop-color:#EF4971"
   id="stop508" />
				<stop
   offset="1"
   style="stop-color:#FD6E43"
   id="stop510" />
			</linearGradient>
			<path
   class="st3"
   d="m 396.9,537 c -2.3,0 -4.6,-0.9 -6.4,-2.7 -3.5,-3.5 -3.5,-9.3 0,-12.8 l 7,-7 c 7.8,-7.8 7.8,-20.6 0,-28.5 -7.8,-7.8 -20.6,-7.8 -28.5,0 l -9.3,9.3 c -3.5,3.5 -9.3,3.5 -12.8,0 -3.5,-3.5 -3.5,-9.3 0,-12.8 l 9.3,-9.3 c 14.9,-14.9 39.2,-14.9 54.1,0 14.9,14.9 14.9,39.2 0,54.1 l -7,7 c -1.8,1.9 -4.1,2.7 -6.4,2.7 z"
   id="path513"
   style="fill:url(#SVGID_4_)" />
		</g>
	</g>
	<g
   id="g537">
		<g
   id="g535"
   style="fill:#292e37;fill-opacity:1">
			<path
   class="st4"
   d="m 440.4,507.6 c 0,-2.9 0.5,-5.6 1.4,-8.1 0.9,-2.5 2.1,-4.6 3.6,-6.3 1.5,-1.7 3.2,-3.2 5.1,-4.4 1.9,-1.2 3.9,-2.1 5.8,-2.7 2,-0.6 3.9,-0.9 5.8,-0.9 1.9,0 3.8,0.3 5.8,0.9 2,0.6 3.9,1.5 5.8,2.7 1.9,1.2 3.6,2.7 5.1,4.4 1.5,1.7 2.7,3.8 3.7,6.3 0.9,2.5 1.4,5.2 1.4,8.1 0,2.9 -0.5,5.6 -1.4,8.1 -0.9,2.5 -2.2,4.6 -3.7,6.3 -1.5,1.7 -3.2,3.1 -5.2,4.4 -1.9,1.2 -3.9,2.1 -5.8,2.7 -2,0.6 -3.9,0.8 -5.8,0.8 -1.9,0 -3.8,-0.3 -5.8,-0.8 -2,-0.6 -3.9,-1.4 -5.8,-2.7 -1.9,-1.2 -3.6,-2.7 -5.1,-4.4 -1.5,-1.7 -2.7,-3.8 -3.6,-6.3 -0.9,-2.4 -1.3,-5.2 -1.3,-8.1 z m 9.2,0 c 0,2.3 0.4,4.4 1.1,6.3 0.8,1.9 1.7,3.4 3,4.5 1.2,1.2 2.6,2 4,2.6 1.5,0.6 2.9,0.9 4.4,0.9 1.5,0 3,-0.3 4.4,-0.9 1.5,-0.6 2.8,-1.5 4,-2.6 1.2,-1.2 2.2,-2.7 3,-4.5 0.8,-1.9 1.1,-4 1.1,-6.3 0,-2.3 -0.4,-4.5 -1.1,-6.3 -0.8,-1.9 -1.8,-3.4 -3,-4.6 -1.2,-1.1 -2.6,-2 -4,-2.6 -1.5,-0.6 -2.9,-0.9 -4.4,-0.9 -1.5,0 -3,0.3 -4.4,0.9 -1.5,0.6 -2.8,1.5 -4,2.6 -1.2,1.1 -2.2,2.7 -3,4.6 -0.7,1.9 -1.1,4 -1.1,6.3 z"
   id="path519"
   style="fill:#292e37;fill-opacity:1" />
			<path
   class="st4"
   d="m 487.8,489.8 c 0,-1.2 0.4,-2.2 1.3,-3.1 0.8,-0.8 1.9,-1.3 3.1,-1.3 0.8,0 1.6,0.2 2.3,0.7 0.7,0.5 1.2,1.1 1.5,1.8 l 12.9,27.9 12.9,-27.9 c 0.3,-0.8 0.8,-1.4 1.5,-1.8 0.7,-0.5 1.5,-0.7 2.3,-0.7 1.2,0 2.2,0.4 3.1,1.3 0.9,0.8 1.3,1.9 1.3,3.1 0,0.5 -0.2,1.2 -0.5,1.9 L 512.7,526 c -0.6,1.2 -1.2,2.1 -1.7,2.7 -0.6,0.6 -1.2,0.9 -2,0.9 -0.8,0 -1.5,-0.3 -2,-0.8 -0.5,-0.6 -1.1,-1.5 -1.7,-2.7 l -16.9,-34.2 c -0.5,-0.9 -0.6,-1.6 -0.6,-2.1 z"
   id="path521"
   style="fill:#292e37;fill-opacity:1" />
			<path
   class="st4"
   d="m 533.8,507.6 c 0,-2.9 0.5,-5.6 1.4,-8.1 0.9,-2.5 2.2,-4.6 3.7,-6.3 1.5,-1.7 3.2,-3.2 5.1,-4.4 1.9,-1.2 3.9,-2.1 5.8,-2.7 2,-0.6 3.9,-0.9 5.8,-0.9 2.3,0 4.7,0.5 7.2,1.4 2.4,1 4.7,2.3 6.8,4 2.1,1.7 3.8,3.9 5.2,6.7 1.3,2.7 2,5.7 2,9 0,1.7 -0.4,3 -1.3,3.7 -0.9,0.8 -2.3,1.1 -4.1,1.1 h -27.9 c 0.5,3.4 2,6 4.4,7.9 2.5,1.9 5.1,2.9 8,2.9 3.4,0 6.3,-0.9 8.6,-2.6 1,-0.7 1.9,-1 2.7,-1 1.2,0 2.2,0.4 2.9,1.1 0.8,0.8 1.1,1.7 1.1,2.9 0,1.6 -0.7,2.8 -2,3.6 -3.7,2.6 -8.2,3.9 -13.4,3.9 -1.9,0 -3.8,-0.3 -5.8,-0.8 -2,-0.6 -3.9,-1.4 -5.9,-2.7 -1.9,-1.2 -3.6,-2.7 -5.2,-4.4 -1.5,-1.7 -2.7,-3.8 -3.7,-6.3 -0.9,-2.3 -1.4,-5.1 -1.4,-8 z m 9.7,-4.1 h 24 c -0.5,-3.2 -2,-5.8 -4.3,-7.6 -2.3,-1.8 -4.9,-2.7 -7.6,-2.7 -1.7,0 -3.4,0.4 -5.1,1.1 -1.7,0.7 -3.2,1.9 -4.5,3.5 -1.3,1.6 -2.2,3.5 -2.5,5.7 z"
   id="path523"
   style="fill:#292e37;fill-opacity:1" />
			<path
   class="st4"
   d="M 585.5,525.2 V 490 c 0,-1.3 0.5,-2.3 1.4,-3.3 0.9,-0.9 2,-1.4 3.3,-1.4 1.3,0 2.3,0.5 3.2,1.4 0.9,0.9 1.4,2 1.4,3.3 v 3.6 c 1.8,-2.5 4,-4.5 6.7,-6 2.7,-1.6 5.5,-2.4 8.5,-2.4 1.5,0 2.7,0.4 3.6,1.2 0.9,0.8 1.3,1.8 1.3,3.1 0,1.3 -0.5,2.3 -1.4,3.1 -0.9,0.8 -2,1.3 -3.4,1.3 h -1.4 c -3.4,0 -6.3,0.8 -8.7,2.5 -2.4,1.7 -4.2,4 -5.3,7 v 21.8 c 0,1.3 -0.5,2.3 -1.4,3.2 -0.9,0.9 -2,1.4 -3.2,1.4 -1.3,0 -2.3,-0.5 -3.3,-1.4 -0.8,-0.8 -1.3,-1.9 -1.3,-3.2 z"
   id="path525"
   style="fill:#292e37;fill-opacity:1" />
			<path
   class="st4"
   d="m 622,525.1 v -34.9 c 0,-1.3 0.5,-2.4 1.4,-3.3 0.9,-0.9 2,-1.4 3.3,-1.4 1.2,0 2.3,0.5 3.2,1.4 0.9,0.9 1.4,2.1 1.4,3.3 v 5.4 c 0,-0.9 0.3,-1.9 0.9,-3.1 0.6,-1.1 1.4,-2.3 2.5,-3.4 1.1,-1.1 2.4,-2 4.1,-2.8 1.7,-0.7 3.6,-1.1 5.6,-1.1 2.3,0 4.5,0.3 6.5,1 2,0.6 3.9,1.8 5.6,3.4 1.7,1.6 3.1,3.6 4.1,6 0.3,-1.2 0.9,-2.4 1.7,-3.5 0.8,-1.2 1.8,-2.3 3,-3.3 1.2,-1 2.7,-1.9 4.4,-2.5 1.8,-0.6 3.6,-0.9 5.6,-0.9 2.4,0 4.7,0.4 6.8,1.1 2.1,0.7 4,1.8 5.7,3.3 1.7,1.5 3.1,3.6 4.1,6.3 1,2.7 1.5,5.9 1.5,9.5 v 19.5 c 0,1.3 -0.5,2.3 -1.4,3.3 -0.9,0.9 -2,1.4 -3.2,1.4 -1.3,0 -2.4,-0.5 -3.3,-1.4 -0.9,-0.9 -1.4,-2 -1.4,-3.3 v -19.5 c 0,-4 -0.9,-7.1 -2.7,-9.2 -1.8,-2.1 -4.1,-3.1 -6.9,-3.1 -6.2,0 -10.2,3.8 -12.1,11.5 v 20.4 c 0,1.3 -0.5,2.3 -1.4,3.3 -0.9,0.9 -2,1.4 -3.2,1.4 -1.3,0 -2.4,-0.5 -3.3,-1.4 -0.9,-0.9 -1.4,-2 -1.4,-3.3 v -19.5 c 0,-4 -0.9,-7.1 -2.8,-9.2 -1.9,-2.1 -4.2,-3.1 -7.1,-3.1 -6,0 -10,3.8 -11.9,11.5 v 20.4 c 0,1.3 -0.4,2.3 -1.3,3.3 -0.9,0.9 -2,1.4 -3.2,1.4 -1.3,0 -2.4,-0.5 -3.3,-1.4 -1.1,-1.2 -1.5,-2.3 -1.5,-3.5 z"
   id="path527"
   style="fill:#292e37;fill-opacity:1" />
			<path
   class="st4"
   d="m 704.8,478.2 c -1,-1 -1.5,-2.1 -1.5,-3.4 0,-1.3 0.5,-2.4 1.5,-3.4 1,-1 2.1,-1.4 3.4,-1.4 1.3,0 2.4,0.5 3.4,1.4 1,1 1.5,2.1 1.5,3.4 0,1.3 -0.5,2.4 -1.5,3.4 -1,1 -2.1,1.4 -3.4,1.4 -1.3,0.1 -2.4,-0.4 -3.4,-1.4 z m -1.4,47 v -35 c 0,-1.3 0.5,-2.4 1.4,-3.3 0.9,-0.9 2.1,-1.4 3.4,-1.4 1.3,0 2.4,0.5 3.3,1.4 0.9,0.9 1.4,2 1.4,3.3 v 35 c 0,1.3 -0.5,2.4 -1.4,3.3 -0.9,0.9 -2,1.4 -3.3,1.4 -1.3,0 -2.4,-0.5 -3.4,-1.4 -0.9,-1 -1.4,-2.1 -1.4,-3.3 z"
   id="path529"
   style="fill:#292e37;fill-opacity:1" />
			<path
   class="st4"
   d="m 723.3,525.2 v -35.1 c 0,-1.3 0.5,-2.3 1.4,-3.3 0.9,-0.9 2,-1.4 3.3,-1.4 1.3,0 2.3,0.5 3.2,1.4 0.9,0.9 1.4,2 1.4,3.3 v 4.9 c 0.1,-0.8 0.5,-1.7 1.1,-2.8 0.6,-1 1.5,-2.1 2.6,-3.2 1.1,-1.1 2.5,-2 4.3,-2.7 1.8,-0.7 3.8,-1.1 5.9,-1.1 2.4,0 4.7,0.4 6.8,1.1 2.1,0.7 4,1.9 5.6,3.3 1.7,1.5 3,3.5 3.9,6 1,2.5 1.4,5.4 1.4,8.7 V 525 c 0,1.3 -0.5,2.3 -1.4,3.2 -0.9,0.9 -2,1.4 -3.2,1.4 -1.3,0 -2.3,-0.5 -3.3,-1.4 -0.9,-0.9 -1.4,-2 -1.4,-3.2 v -20.2 c 0,-4 -0.9,-7 -2.6,-8.9 -1.7,-1.9 -4.1,-2.8 -7.1,-2.8 -1.8,0 -3.5,0.4 -5.1,1.2 -1.6,0.8 -2.9,1.9 -4,3.1 -1,1.2 -1.9,2.4 -2.5,3.6 -0.6,1.2 -1,2.2 -1.2,3.1 V 525 c 0,1.3 -0.5,2.3 -1.4,3.2 -0.9,0.9 -2,1.4 -3.2,1.4 -1.3,0 -2.3,-0.5 -3.3,-1.4 -0.7,-0.7 -1.2,-1.8 -1.2,-3 z"
   id="path531"
   style="fill:#292e37;fill-opacity:1" />
			<path
   class="st4"
   d="m 771.8,507.5 c 0,-2.9 0.4,-5.6 1.2,-8.1 0.8,-2.5 1.9,-4.6 3.3,-6.3 1.4,-1.7 3,-3.2 4.8,-4.4 1.8,-1.2 3.6,-2.1 5.5,-2.7 1.9,-0.6 3.8,-0.9 5.7,-0.9 3.2,0 6,0.6 8.2,1.8 2.2,1.2 3.9,2.6 5,4.3 v -16.6 c 0,-1.3 0.5,-2.3 1.4,-3.3 0.9,-0.9 2,-1.4 3.3,-1.4 1.3,0 2.3,0.5 3.2,1.4 0.9,0.9 1.4,2 1.4,3.3 v 50.5 c 0,1.3 -0.5,2.3 -1.4,3.2 -0.9,0.9 -2,1.4 -3.2,1.4 -1.3,0 -2.3,-0.5 -3.3,-1.4 -0.9,-0.9 -1.4,-2 -1.4,-3.2 v -2.9 c -0.2,1.9 -1.6,3.6 -4.2,5.2 -2.6,1.6 -5.6,2.4 -9,2.4 -1.9,0 -3.8,-0.3 -5.7,-0.8 -1.9,-0.6 -3.7,-1.4 -5.5,-2.7 -1.8,-1.2 -3.4,-2.7 -4.8,-4.4 -1.4,-1.7 -2.5,-3.8 -3.3,-6.3 -0.8,-2.4 -1.2,-5.1 -1.2,-8.1 z m 9.2,0 c 0,2.3 0.4,4.3 1.1,6.2 0.8,1.9 1.7,3.4 2.9,4.6 1.2,1.2 2.5,2.1 4,2.7 1.5,0.6 2.9,0.9 4.4,0.9 1.6,0 3.1,-0.3 4.5,-0.8 1.4,-0.6 2.8,-1.4 4,-2.5 1.2,-1.1 2.1,-2.6 2.8,-4.5 0.7,-1.9 1.1,-4.1 1.1,-6.6 0,-2.5 -0.4,-4.7 -1.1,-6.6 -0.7,-1.9 -1.7,-3.4 -2.9,-4.5 -1.2,-1.1 -2.5,-1.9 -3.9,-2.5 -1.4,-0.5 -2.9,-0.8 -4.5,-0.8 -1.5,0 -3,0.3 -4.4,0.9 -1.5,0.6 -2.8,1.5 -4,2.7 -1.2,1.2 -2.2,2.7 -2.9,4.6 -0.7,1.9 -1.1,4 -1.1,6.2 z"
   id="path533"
   style="fill:#292e37;fill-opacity:1" />
		</g>
	</g>
</g>
</svg>
