<svg width="14" height="13" viewBox="0 0 14 13" fill="none" xmlns="http://www.w3.org/2000/svg">
<path d="M12.5 3H1.5C1.22386 3 1 3.22386 1 3.5V11.5C1 11.7761 1.22386 12 1.5 12H12.5C12.7761 12 13 11.7761 13 11.5V3.5C13 3.22386 12.7761 3 12.5 3Z" stroke="#04121F" stroke-width="1.5" stroke-linecap="round" stroke-linejoin="round"/>
<path d="M9.5 5V2C9.5 1.73478 9.39464 1.48043 9.20711 1.29289C9.01957 1.10536 8.76522 1 8.5 1H5.5C5.23478 1 4.98043 1.10536 4.79289 1.29289C4.60536 1.48043 4.5 1.73478 4.5 2V5" stroke="#04121F" stroke-width="1.5" stroke-linecap="round" stroke-linejoin="round"/>
</svg>
