<svg width="47" height="33" viewBox="0 0 47 33" fill="none" xmlns="http://www.w3.org/2000/svg">
<path d="M21.9188 31.1798C21.8713 31.371 21.7865 31.551 21.6693 31.7094C21.5521 31.8678 21.4048 32.0015 21.2358 32.1029C21.0668 32.2043 20.8795 32.2713 20.6846 32.3002C20.4897 32.3291 20.291 32.3192 20.0999 32.2711L14.4487 30.8585C13.9902 30.7431 13.5652 30.5217 13.208 30.2121L8.9797 26.5366C8.67944 26.2756 8.49515 25.9061 8.46737 25.5092C8.43959 25.1124 8.57059 24.7207 8.83157 24.4205C9.09255 24.1202 9.46211 23.9359 9.85897 23.9081C10.2558 23.8804 10.6475 24.0114 10.9477 24.2723L15.1764 27.948L20.8275 29.3608C21.0186 29.4086 21.1985 29.4935 21.3567 29.6108C21.515 29.7281 21.6486 29.8754 21.75 30.0443C21.8513 30.2132 21.9184 30.4004 21.9474 30.5952C21.9763 30.7901 21.9666 30.9887 21.9188 31.1798V31.1798ZM46.7816 13.3212C46.6601 13.7007 46.4636 14.0521 46.2038 14.3543C45.944 14.6565 45.6262 14.9036 45.2692 15.0807L40.9064 17.2621L38.1039 20.5406C38.0941 20.5521 38.0834 20.5626 38.0733 20.5738C38.0641 20.5839 38.0549 20.594 38.0455 20.6038C38.0383 20.6113 38.0318 20.6193 38.0244 20.6266L31.125 27.5263C30.5594 28.0884 29.7943 28.4039 28.9968 28.4037C28.7538 28.4038 28.5117 28.374 28.2759 28.3151L17.409 25.5984C17.0011 25.497 16.6193 25.3106 16.2885 25.0513L6.15822 17.1298L1.65822 14.8798C1.30191 14.7016 0.984665 14.4542 0.724984 14.1521C0.465303 13.8499 0.26839 13.4991 0.145736 13.1201C0.0230822 12.7411 -0.0228572 12.3414 0.0105984 11.9444C0.044054 11.5475 0.156235 11.1611 0.340595 10.808L4.95174 1.97724C5.31865 1.28282 5.94204 0.758993 6.68928 0.517202C7.43652 0.275412 8.24862 0.334748 8.95278 0.682586L13.1481 2.78023L22.2741 0.11973C22.9615 -0.0804261 23.6978 -0.0283781 24.3503 0.266489L30.5372 3.06599H33.6098L37.9748 0.883555C38.6789 0.535453 39.4911 0.475987 40.2384 0.717821C40.9857 0.959655 41.609 1.48368 41.9757 2.17829L46.5868 11.0088C46.7724 11.3616 46.8853 11.748 46.9188 12.1452C46.9522 12.5424 46.9056 12.9423 46.7816 13.3212V13.3212ZM34.6618 19.7466L28.7274 15.4307L27.2137 16.566C25.913 17.5338 24.3349 18.0564 22.7137 18.0564C21.0925 18.0564 19.5144 17.5338 18.2137 16.566L17.1973 15.8037C16.8535 15.5458 16.569 15.2171 16.3633 14.8397C16.1576 14.4623 16.0354 14.0451 16.0049 13.6164C15.9744 13.1877 16.0364 12.7574 16.1867 12.3548C16.337 11.9521 16.572 11.5864 16.8759 11.2825L24.2137 3.9447C24.3209 3.8391 24.4358 3.74161 24.5575 3.65305L23.1138 2.99979L13.9781 5.6631L8.87139 15.443L18.1366 22.6881L29.0036 25.4048L34.6618 19.7466ZM38.1649 15.8523L33.0547 6.06598H30.2179L30.2128 6.06635C30.2104 6.06635 30.2081 6.066 30.2058 6.06598H26.335L18.9974 13.4037L20.0136 14.166C20.7941 14.7467 21.7409 15.0602 22.7137 15.0602C23.6865 15.0602 24.6333 14.7467 25.4138 14.166L27.8137 12.366C28.0703 12.1735 28.3819 12.0683 28.7027 12.066C29.0234 12.0636 29.3365 12.1642 29.5959 12.3529L36.7245 17.5373L38.1649 15.8523Z" fill="#2CAE76"/>
</svg>
