<svg width="20" height="15" viewBox="0 0 20 15" fill="none" xmlns="http://www.w3.org/2000/svg">
<path d="M19.4991 0.732125C19.4988 0.718255 19.4981 0.704407 19.497 0.690582C19.4961 0.679299 19.495 0.668091 19.4936 0.65696C19.492 0.644004 19.49 0.631118 19.4877 0.618232C19.4857 0.606607 19.4834 0.59507 19.4809 0.583649C19.4781 0.571426 19.4749 0.559318 19.4715 0.547234C19.4682 0.535675 19.4649 0.524231 19.4611 0.512921C19.4572 0.501109 19.4528 0.489484 19.4483 0.477859C19.444 0.466735 19.4395 0.455725 19.4347 0.4449C19.4296 0.433456 19.4241 0.422217 19.4184 0.411002C19.413 0.40036 19.4074 0.38983 19.4016 0.379485C19.3954 0.368798 19.389 0.358291 19.3824 0.34783C19.3756 0.33728 19.3687 0.326933 19.3615 0.316748C19.3547 0.307159 19.3476 0.297752 19.3403 0.288413C19.3321 0.277908 19.3236 0.267695 19.3148 0.257651C19.3107 0.252913 19.3071 0.247878 19.3029 0.243214C19.2993 0.239276 19.2953 0.235935 19.2916 0.23209C19.2826 0.222614 19.2732 0.213528 19.2637 0.204532C19.2548 0.196201 19.2459 0.187939 19.2368 0.180088C19.2278 0.172401 19.2185 0.165119 19.2091 0.15784C19.1988 0.149872 19.1886 0.141979 19.1781 0.134633C19.1689 0.128246 19.1594 0.122318 19.15 0.116345C19.1388 0.109295 19.1277 0.102268 19.1163 0.0958593C19.1063 0.0902746 19.096 0.0852169 19.0858 0.0800897C19.0745 0.0744366 19.0633 0.0687366 19.0518 0.0636835C19.0405 0.0587391 19.0291 0.0544368 19.0176 0.0500418C19.0065 0.0458305 18.9955 0.041551 18.9844 0.0378882C18.9722 0.0338832 18.9598 0.0305408 18.9475 0.0271536C18.9364 0.024132 18.9253 0.0210881 18.9142 0.0185934C18.9018 0.0158241 18.8892 0.01365 18.8767 0.0114985C18.8648 0.00948376 18.8529 0.00751583 18.841 0.00607395C18.8291 0.00463208 18.8172 0.00367036 18.8052 0.0028013C18.7921 0.00183942 18.779 0.00108364 18.7658 0.000808954C18.7605 0.000686142 18.7554 0 18.75 0H0.75C0.744965 0 0.740112 0.000663793 0.735077 0.000755668C0.721253 0.00103036 0.707428 0.0018084 0.69365 0.00283778C0.682251 0.00370778 0.670944 0.00460035 0.659729 0.00595129C0.64714 0.0074616 0.634643 0.00952122 0.622101 0.0116962C0.610153 0.0137587 0.598206 0.0157931 0.586487 0.0184246C0.574674 0.0210571 0.563049 0.0242614 0.551331 0.0274658C0.539518 0.0307161 0.52771 0.0338972 0.516128 0.0376968C0.50441 0.0415406 0.492878 0.0460051 0.481293 0.050447C0.470352 0.0546582 0.459366 0.0587775 0.448654 0.0634696C0.436706 0.0687112 0.425029 0.0746164 0.41331 0.0805217C0.403466 0.0854651 0.393622 0.0902945 0.38406 0.0956504C0.372341 0.102219 0.360897 0.109432 0.349453 0.116685C0.340298 0.122498 0.331051 0.128266 0.322172 0.13447C0.311415 0.141931 0.301024 0.149938 0.290633 0.158044C0.281385 0.165208 0.27223 0.172395 0.263351 0.179993C0.254105 0.18789 0.245178 0.196198 0.236206 0.204644C0.226731 0.213571 0.217438 0.222635 0.208419 0.232041C0.204758 0.23591 0.200732 0.239274 0.197113 0.243211C0.192856 0.24788 0.189285 0.252915 0.185166 0.257648C0.176422 0.267696 0.167908 0.277905 0.159666 0.288411C0.152388 0.297749 0.145292 0.307161 0.138517 0.316746C0.131285 0.326931 0.124372 0.337277 0.117643 0.347827C0.111006 0.358288 0.104551 0.368794 0.0984169 0.379482C0.0925575 0.389827 0.0870188 0.400357 0.0816178 0.410999C0.0759413 0.422214 0.0704025 0.433453 0.0652753 0.444897C0.0604687 0.455723 0.0560288 0.466732 0.0517257 0.477856C0.0471938 0.489481 0.0427987 0.501106 0.0388622 0.512918C0.0351122 0.524226 0.0317672 0.53567 0.0285169 0.547231C0.0251297 0.559315 0.0219254 0.571423 0.0191326 0.583646C0.0165694 0.595067 0.014326 0.606603 0.0122663 0.61823C0.00997784 0.631116 0.00796318 0.644002 0.00636005 0.656957C0.00498505 0.668103 0.00387124 0.679311 0.00301874 0.690579C0.00191999 0.704427 0.0012182 0.718274 0.000913203 0.732122C0.000778203 0.738121 0 0.743958 0 0.75V13.5C0.000454817 13.8977 0.158636 14.279 0.439842 14.5602C0.721048 14.8414 1.10231 14.9995 1.5 15H18C18.3977 14.9995 18.779 14.8414 19.0602 14.5602C19.3414 14.279 19.4995 13.8977 19.5 13.5V0.75C19.5 0.743958 19.4992 0.738121 19.4991 0.732125ZM1.5 2.45496L7.00369 7.50003L1.5 12.5451V2.45496ZM2.67819 13.5L8.11368 8.51749L9.24316 9.55286C9.3815 9.67966 9.56234 9.75 9.75 9.75C9.93766 9.75 10.1185 9.67966 10.2568 9.55286L11.3864 8.51747L16.8219 13.5H2.67819ZM12.4963 7.5L18.0001 2.45483L18.0009 12.5458L12.4963 7.5Z" fill="black"/>
</svg>
