<svg width="20" height="20" viewBox="0 0 20 20" fill="none" xmlns="http://www.w3.org/2000/svg">
<path d="M9.75 0C7.82164 0 5.93657 0.571828 4.33319 1.64317C2.72982 2.71452 1.48013 4.23726 0.742179 6.01884C0.00422452 7.80042 -0.188858 9.76082 0.187348 11.6521C0.563554 13.5434 1.49215 15.2807 2.85571 16.6443C4.21928 18.0079 5.95656 18.9365 7.84787 19.3127C9.73919 19.6889 11.6996 19.4958 13.4812 18.7578C15.2627 18.0199 16.7855 16.7702 17.8568 15.1668C18.9282 13.5634 19.5 11.6784 19.5 9.75C19.497 7.16506 18.4688 4.68684 16.641 2.85901C14.8132 1.03118 12.3349 0.00298763 9.75 0V0ZM14.1923 10.0364C14.1547 10.1279 14.0993 10.2111 14.0294 10.2812L10.8486 13.4619C10.7079 13.6023 10.5173 13.6811 10.3185 13.681C10.1198 13.6809 9.92919 13.6019 9.78866 13.4613C9.64812 13.3208 9.56911 13.1302 9.56901 12.9315C9.5689 12.7327 9.6477 12.5421 9.78809 12.4014L11.6895 10.5H6C5.80109 10.5 5.61033 10.421 5.46967 10.2803C5.32902 10.1397 5.25 9.94891 5.25 9.75C5.25 9.55109 5.32902 9.36032 5.46967 9.21967C5.61033 9.07902 5.80109 9 6 9H11.6895L9.78809 7.09863C9.6477 6.95794 9.5689 6.76728 9.56901 6.56852C9.56911 6.36977 9.64812 6.17919 9.78866 6.03865C9.92919 5.89811 10.1198 5.81911 10.3185 5.819C10.5173 5.8189 10.7079 5.8977 10.8486 6.03809L14.0294 9.21881C14.1341 9.32384 14.2055 9.45749 14.2345 9.60296C14.2635 9.74842 14.2488 9.89922 14.1923 10.0364V10.0364Z" fill="black"/>
</svg>
